<?xml version="1.0" encoding="UTF-8"?>
<svg width="400px" height="59px" viewBox="0 0 400 59" version="1.1" xmlns="http://www.w3.org/2000/svg" xmlns:xlink="http://www.w3.org/1999/xlink">
    <!-- Generator: Sketch 51.3 (57544) - http://www.bohemiancoding.com/sketch -->
    <title>Slice</title>
    <desc>Created with Sketch.</desc>
    <defs></defs>
    <g id="Page-1" stroke="none" stroke-width="1" fill="none" fill-rule="evenodd">
        <g id="Group-3" transform="translate(10.000000, 8.000000)" fill-rule="nonzero">
            <g id="Text" transform="translate(90.000000, 0.000000)">
                <g id="Cash" transform="translate(171.000000, 0.000000)" fill="#FCC60A">
                    <path d="M91.1123596,42.9268293 L91.1123596,1.33436572 L99.6136404,0 L99.6136404,13.9398632 C100.335158,13.7191542 101.069253,13.5390453 101.812247,13.4004388 C102.671376,13.233985 103.545117,13.1484141 104.421261,13.1449219 C106.854386,13.1449219 108.877105,13.4572203 110.489417,14.1102078 C111.995925,14.6881864 113.327042,15.6257572 114.358965,16.8357207 C115.347749,18.0766845 116.047757,19.5100509 116.410999,21.0375532 C116.828972,22.8159939 117.025802,24.6364693 116.997294,26.4601884 L116.997294,42.8984385 L108.496013,42.8984385 L108.496013,27.453865 C108.496013,24.7851336 108.144236,22.9113434 107.440682,21.8041038 C106.737127,20.6968641 105.417963,20.1574397 103.541818,20.1574397 C102.823189,20.1489707 102.105713,20.2156012 101.401841,20.356175 C100.798569,20.4680773 100.2017,20.6102222 99.6136404,20.7820364 L99.6136404,42.8984385 L91.1123596,42.8984385 L91.1123596,42.9268293 Z" id="Shape"></path>
                    <path d="M75.3870456,36.1674873 C76.9085239,36.1674873 77.9993951,36.0231591 78.6309521,35.705637 C79.2625091,35.4169805 79.5782876,34.8108019 79.5782876,33.9736982 C79.5782876,33.3097883 79.1763877,32.7036097 78.3438807,32.2128937 C77.1453402,31.5296256 75.8864138,30.9594975 74.5832458,30.5098206 C73.3694427,30.066491 72.1810526,29.5557454 71.0235608,28.9799413 C70.0274055,28.5082889 69.1156278,27.874323 68.3250899,27.1036743 C67.5714555,26.3614185 66.9842089,25.4658433 66.6026617,24.4769005 C66.1720296,23.3044994 65.9674335,22.0603481 65.9998118,20.8109634 C65.9998118,18.0398614 67.0332687,15.8460722 69.0714755,14.229596 C71.1096822,12.6131198 73.9229816,11.8048817 77.5113737,11.8048817 C79.235845,11.803981 80.956479,11.9682955 82.6499512,12.2955977 C83.9789535,12.527004 85.2853099,12.8747136 86.5541219,13.334761 L85.0900579,19.8583971 C84.0559898,19.497583 83.001542,19.1987796 81.9322728,18.963562 C80.6784225,18.6869602 79.3978699,18.5514209 78.1142236,18.559443 C75.5018741,18.559443 74.210053,19.2810842 74.210053,20.7532321 C74.203241,21.0604575 74.2619735,21.3655843 74.3822958,21.6480672 C74.534766,21.9510098 74.7621312,22.2094505 75.0425599,22.398574 C75.4793555,22.6967114 75.9402909,22.9574192 76.4205025,23.1779464 C77.1383606,23.5298505 77.876493,23.8383006 78.6309521,24.1016471 C80.1878885,24.6679582 81.7035004,25.3431394 83.1666797,26.1222424 C84.213417,26.6761842 85.1635876,27.3976215 85.9799791,28.2583002 C86.6438944,28.9893778 87.14326,29.8557859 87.4440431,30.7984771 C87.7491233,31.8579516 87.894277,32.9574799 87.8746502,34.0602951 C87.8746502,36.9757254 86.783779,39.1983802 84.6020366,40.6705281 C82.4202942,42.1715418 79.3486305,42.9220486 75.3583385,42.9220486 C73.1675985,42.9630528 70.9798553,42.7401632 68.8418184,42.2581387 C67.6153832,41.9538946 66.4076339,41.5780033 65.2247191,41.1323785 L66.6313688,34.3200859 C68.0480592,34.8797494 69.5072702,35.3237911 70.9948536,35.6479057 C72.4339932,35.991395 73.90792,36.1657556 75.3870456,36.1674873 Z" id="Shape"></path>
                    <path d="M47.8504925,12.8780488 C50.3741739,12.8780488 52.4576784,13.1580764 54.1303509,13.6901288 C55.658842,14.1339742 57.0428522,14.9437462 58.1506341,16.0423604 C59.171867,17.0879816 59.9075876,18.35747 60.2928288,19.7387245 C60.7195076,21.3208607 60.9266935,22.9496006 60.9090766,24.5832016 L60.9090766,41.4968674 C59.676581,41.7488922 58.0039085,42.0569225 55.8323686,42.3929556 C53.219962,42.7691325 50.5804092,42.9470409 47.9385279,42.925008 C46.1638445,42.9409119 44.3926449,42.7718942 42.656404,42.4209584 C41.2045661,42.135567 39.8212514,41.5942573 38.5774305,40.8248012 C37.4450585,40.0914367 36.534337,39.0871883 35.9363685,37.9125144 C35.3201208,36.7083958 35.0266694,35.2522524 35.0266694,33.4880786 C34.9786625,32.0051363 35.3431662,30.5365222 36.0830942,29.2316594 C36.753057,28.0891854 37.7241619,27.1335443 38.900227,26.4593864 C40.1464789,25.7321351 41.5173374,25.2202505 42.9498553,24.9472374 C44.5127558,24.6307677 46.1060674,24.4712167 47.7037668,24.4711906 C48.683814,24.4695274 49.6632948,24.5162612 50.6382801,24.6112043 C51.3441045,24.663474 52.0423428,24.7854722 52.7217845,24.9752402 L52.7217845,24.2191657 C52.7217845,22.8470306 52.2816076,21.7269203 51.4012536,20.8868375 C50.5208996,20.0467548 48.9949527,19.6267134 46.8234128,19.6267134 C45.3893684,19.6306868 43.957503,19.7336321 42.5390234,19.9347438 C41.2891144,20.0927589 40.0597978,20.3742986 38.8708818,20.7748265 L37.7851119,14.2221812 C38.2839792,14.0821674 38.900227,13.9141508 39.6338553,13.7461343 C40.3674836,13.5781177 41.1891473,13.4381039 42.0695013,13.2980901 C42.9498553,13.1580764 43.8595544,13.0740681 44.8279438,12.9620571 C45.8550235,12.9340543 46.852758,12.8780488 47.8504925,12.8780488 Z M48.5254305,36.6523903 C49.3764394,36.6523903 50.168758,36.6243875 50.9317314,36.5963847 C51.5417378,36.5837228 52.1498987,36.5275608 52.7511297,36.4283682 L52.7511297,30.2677614 C52.2370972,30.1675278 51.7179719,30.0927537 51.1958376,30.0437394 C50.5729661,29.9680783 49.9456458,29.9306643 49.3177491,29.9317284 C48.5622451,29.9336877 47.8075989,29.9804491 47.0581739,30.0717421 C46.4118427,30.1341734 45.7841622,30.3148144 45.2094305,30.6037945 C44.7015227,30.8385285 44.2665844,31.1956579 43.9475898,31.6398966 C43.6312836,32.1271906 43.4683145,32.6909297 43.4780677,33.2640565 C43.4780677,34.5241807 43.9182447,35.4202689 44.8279438,35.8963158 C45.7376429,36.4283682 46.9701385,36.6523903 48.5254305,36.6523903 Z" id="Shape"></path>
                    <path d="M19.8592574,43.9964477 C13.5429209,43.9964477 8.73867707,42.2763879 5.44652591,38.8362683 C2.14480455,35.3961487 0.498728968,30.508547 0.508299175,24.1734634 C0.463519575,21.2935099 0.980020143,18.4317232 2.02996206,15.7423506 C2.9463578,13.3943143 4.3549005,11.2616052 6.16429142,9.48246081 C7.94552094,7.77025565 10.0797759,6.4529653 12.4232067,5.61937567 C14.9541215,4.72108826 17.6276086,4.272328 20.3186274,4.29408369 C21.8199835,4.27798286 23.3195498,4.40071422 24.7974842,4.66065382 C25.9920568,4.85466645 27.1718888,5.12786864 28.3288905,5.47838717 C29.1952488,5.73272663 30.0400071,6.05327963 30.8554251,6.43710902 C31.5157694,6.77548144 32.0038499,7.02926076 32.3196667,7.19844697 L29.7931321,14.1068839 C28.4676164,13.4343518 27.0717852,12.9049028 25.6300922,12.5278126 C23.8707242,12.0642958 22.0537483,11.8459775 20.2324955,11.8792655 C18.8939822,11.8815086 17.5650165,12.1006337 16.2991405,12.5278126 C15.0165789,12.9790035 13.8503418,13.7008956 12.8825766,14.6426402 C11.8329339,15.7175935 11.0215407,16.9945498 10.4995951,18.3929345 C9.8966721,19.9438081 9.60956589,21.8048565 9.60956589,24.0042772 C9.60291183,25.6562818 9.79566063,27.3032381 10.1837783,28.9106773 C10.5376777,30.330056 11.182435,31.6636949 12.0786793,32.8301578 C12.996814,33.9625421 14.1783525,34.8618756 15.5239537,35.4525441 C16.9307741,36.1010912 18.6534114,36.4112659 20.6631548,36.4112659 C21.8059949,36.4151129 22.9476864,36.3397317 24.0797186,36.1856843 C24.9906159,36.0672267 25.8922843,35.8882305 26.778517,35.649928 C27.4838674,35.4755475 28.1748699,35.2493283 28.8456817,34.9731832 C29.4486047,34.7194038 29.9941065,34.4656245 30.4534764,34.2682406 L32.8651685,41.1484798 C31.6306119,41.8816201 29.9079746,42.5301672 27.6685462,43.1223189 C25.1145691,43.7423834 22.4898005,44.0361855 19.8592574,43.9964477 Z" id="Shape"></path>
                </g>
                <g id="Bitcoin" fill="#4D4D4D">
                    <path d="M13.1921231,41.8536585 C11.0227517,41.8536585 8.85338038,41.7962387 6.71332486,41.6526893 C4.45599981,41.5040271 2.21246907,41.1970006 0,40.7339727 L0,3.15272079 C1.98797825,2.7975735 3.99417893,2.54838771 6.00974496,2.40626353 C8.17911631,2.23400416 10.2019085,2.14787448 12.0781216,2.14787448 C14.4060093,2.12751067 16.7311298,2.31005995 19.0259731,2.69336247 C20.9394924,2.97160683 22.7864077,3.58424492 24.4787173,4.50208583 C25.9526098,5.30598227 27.1857252,6.47401576 28.0552484,7.88985337 C28.9054075,9.2966382 29.3451449,11.0192319 29.3451449,13.0576344 C29.3451449,16.158303 27.8207218,18.598644 24.7718756,20.3786575 C27.2930369,21.2973741 28.9933549,22.5893193 29.9021456,24.1683635 C30.8300296,25.8310396 31.3045799,27.6998946 31.2799896,29.5945336 C31.2799896,33.6713386 29.7555665,36.7145874 26.7360361,38.7529899 C23.6578741,40.8488122 19.1725522,41.8536585 13.1921231,41.8536585 Z M8.6774854,17.8234769 L13.0162281,17.8234769 C15.771916,17.8234769 17.7067608,17.4789581 18.9087097,16.7899207 C20.0813429,16.1008832 20.6676595,14.9811973 20.6676595,13.4595729 C20.6676595,11.8805287 20.0520271,10.7895527 18.8500781,10.157935 C17.6188133,9.52631736 15.8305477,9.21050852 13.4852814,9.21050852 C12.7230698,9.21050852 11.9022266,9.21050852 11.0227517,9.23921841 C10.1432769,9.26792831 9.3810653,9.2966382 8.6774854,9.38276789 L8.6774854,17.8234769 Z M8.6774854,24.4841724 L8.6774854,34.5039256 C9.32243364,34.5900552 10.0260135,34.647475 10.7882251,34.6761849 C11.5504367,34.7048948 12.4005957,34.7336047 13.3093864,34.7336047 C15.9771268,34.7336047 18.1171824,34.3603761 19.7588688,33.6139188 C21.4005552,32.8674616 22.2213984,31.4893866 22.2213984,29.479694 C22.2213984,27.6996806 21.5471344,26.4077353 20.1692904,25.6612781 C18.7914464,24.8861109 16.8272859,24.5128823 14.2768088,24.5128823 L8.6774854,24.4841724 Z" id="Shape"></path>
                    <path d="M44.2247191,4.82237276 C44.2247191,6.30810943 43.7504843,7.48548566 42.7741186,8.35450145 C40.8277551,10.073753 37.9138179,10.073753 35.9674545,8.35450145 C35.0189849,7.48548566 34.5168539,6.3361422 34.5168539,4.82237276 C34.5168539,3.33663608 34.9910887,2.15925985 35.9674545,1.29024406 C36.9011432,0.447243639 38.1156649,-0.012933204 39.3707865,0.00073675951 C40.6273183,-0.0210301825 41.8446905,0.440226697 42.7741186,1.29024406 C43.7504843,2.15925985 44.2247191,3.33663608 44.2247191,4.82237276 Z M43.4436265,41.8536585 L35.3537389,41.8536585 L35.3537389,13.1200719 L43.4436265,13.1200719 L43.4436265,41.8536585 Z" id="Shape"></path>
                    <path d="M49.6466184,4.5635004 L57.9146419,3.2195122 L57.9146419,11.8553513 L67.8647804,11.8553513 L67.8647804,18.7754608 L57.9146419,18.7754608 L57.9146419,29.0698385 C57.9146419,30.8141636 58.2282566,32.2153428 58.8269755,33.2447806 C59.4256944,34.2742184 60.6801532,34.8175327 62.5333308,34.8175327 C63.4515223,34.814431 64.3675649,34.7282958 65.2703317,34.5601733 C66.1523815,34.4028497 67.0200995,34.1733182 67.8647804,33.8738815 L69.0337079,40.336463 C67.9502393,40.7736925 66.8350982,41.1273962 65.6979881,41.3944963 C64.2186102,41.7179347 62.707334,41.8714319 61.1933408,41.8520242 C58.9410172,41.8520242 57.0593291,41.5374738 55.576787,40.9369684 C54.185151,40.405985 52.9564462,39.5186779 52.0129838,38.363374 C51.0937188,37.2021147 50.4589782,35.8406963 50.1598061,34.3886003 C49.7940182,32.687925 49.6123994,30.9526046 49.618108,29.212816 L49.6466184,4.5635004 Z" id="Shape"></path>
                    <path d="M70.1127923,26.2653651 C70.0982972,24.2123386 70.4480877,22.173132 71.1457748,20.2432902 C72.4597421,16.5181479 75.2705255,13.5179155 78.8931438,11.9737424 C80.9055117,11.1135665 83.0765352,10.6912973 85.2632028,10.7347509 C86.709284,10.7212126 88.1525204,10.8661388 89.5672967,11.1669573 C90.864289,11.4522146 92.1322246,11.8573329 93.3548993,12.377135 L91.6332618,19.0619263 C90.7881962,18.7525303 89.9259205,18.4927676 89.0508054,18.2839549 C88.0259522,18.0425045 86.9757801,17.9264065 85.9231639,17.9381898 C83.4554833,17.9381898 81.61907,18.7161612 80.4139237,20.2432902 C79.2087774,21.7704193 78.6062042,23.7873821 78.6062042,26.2941789 C78.6062042,28.9450444 79.1800834,31.0196348 80.2991478,32.4603225 C81.4469062,33.9298241 83.4267894,34.650168 86.2387974,34.650168 C87.3258504,34.6480823 88.4106911,34.5516779 89.4812148,34.3620304 C90.5749656,34.1947662 91.6444603,33.8948315 92.6662443,33.468804 L93.8426966,40.3264778 C92.6656444,40.8007096 91.4450829,41.1577909 90.1985638,41.3925867 C88.6103394,41.7025073 86.9959093,41.8569044 85.3779786,41.8536068 C82.6807464,41.8536068 80.3852297,41.4502142 78.4340405,40.6434291 C76.6133304,39.9200271 74.9762711,38.797848 73.6421493,37.358661 C72.3787412,35.9521451 71.4470431,34.277935 70.9162231,32.4603225 C70.3808359,30.4392944 70.1107391,28.3566777 70.1127923,26.2653651 Z" id="Shape"></path>
                    <path d="M122.965372,27.3086031 C122.986478,29.476747 122.644379,31.6331613 121.953219,33.6886957 C121.342681,35.523012 120.346892,37.2060675 119.032433,38.6253285 C117.743472,39.998331 116.175884,41.0809709 114.434365,41.8009402 C110.595228,43.3021256 106.330091,43.3021256 102.490955,41.8009402 C100.749436,41.0809709 99.1818476,39.998331 97.8928868,38.6253285 C96.5764273,37.1973443 95.5631999,35.5180677 94.914264,33.6886957 C94.1780195,31.6430555 93.8156083,29.4820861 93.8442733,27.3086031 C93.8196942,25.1423564 94.1921224,22.9898816 94.9431827,20.9573798 C95.6058834,19.138671 96.6398899,17.47726 97.9796428,16.0784854 C99.2859631,14.7197411 100.861862,13.6479963 102.60663,12.9317429 C104.458323,12.1686343 106.445029,11.7857185 108.448201,11.8058442 C110.470353,11.782988 112.476503,12.1658606 114.347609,12.9317429 C116.087579,13.6412575 117.655355,14.7141837 118.945677,16.0784854 C120.26129,17.4851064 121.274922,19.1454045 121.9243,20.9573798 C122.627858,23.000637 122.979855,25.1480493 122.965372,27.3086031 Z M114.405446,27.3086031 C114.405446,24.7103754 113.88491,22.6895316 112.843838,21.2172025 C111.802766,19.7448735 110.327914,18.9942743 108.419282,18.9942743 C106.51065,18.9942743 105.006879,19.7448735 103.965807,21.2172025 C102.924735,22.6895316 102.37528,24.7392446 102.37528,27.3086031 C102.37528,29.9068309 102.895816,31.9565439 103.965807,33.4577422 C105.006879,34.9878096 106.51065,35.7384087 108.419282,35.7384087 C110.327914,35.7384087 111.802766,34.9878096 112.843838,33.4577422 C113.88491,31.9276747 114.405446,29.8779617 114.405446,27.3086031 Z" id="Shape"></path>
                    <path d="M135.910112,4.82237276 C135.910112,6.30810943 135.435878,7.48548566 134.459512,8.35450145 C132.513148,10.073753 129.599211,10.073753 127.652848,8.35450145 C126.704378,7.48548566 126.202247,6.3361422 126.202247,4.82237276 C126.202247,3.33663608 126.676482,2.15925985 127.652848,1.29024406 C128.586536,0.447243639 129.801058,-0.012933204 131.05618,0.00073675951 C132.312712,-0.0210301825 133.530084,0.440226697 134.459512,1.29024406 C135.435878,2.15925985 135.910112,3.33663608 135.910112,4.82237276 Z M135.156916,41.8536585 L127.067028,41.8536585 L127.067028,13.1200719 L135.156916,13.1200719 L135.156916,41.8536585 Z" id="Shape"></path>
                    <path d="M140.224719,13.4965556 C142.06543,13.0025001 143.935429,12.619479 145.824155,12.3496556 C148.200664,11.9895513 150.601816,11.8074295 153.006677,11.804878 C155.557205,11.804878 157.667987,12.1202756 159.368339,12.7797431 C160.929453,13.3393667 162.313963,14.2882256 163.384688,15.5323031 C164.403173,16.7750807 165.12439,18.2250201 165.49547,19.7758332 C165.923788,21.5706819 166.130479,23.4092918 166.111115,25.2522808 L166.111115,41.8536585 L157.609354,41.8536585 L157.609354,26.2558183 C157.609354,23.5606032 157.257557,21.6682182 156.524647,20.5499907 C155.791736,19.4317632 154.443181,18.8869857 152.478981,18.8869857 C151.863337,18.8869857 151.218375,18.9156582 150.544098,18.9730032 C149.86982,19.0303482 149.254176,19.0876932 148.72648,19.1737107 L148.72648,41.8536585 L140.224719,41.8536585 L140.224719,13.4965556 Z" id="Shape"></path>
                </g>
            </g>
            <g id="Sim">
                <path d="M50.6153846,43 C57.2617416,38.2536795 61.6049759,30.3962037 61.6049759,21.5036538 C61.6049759,12.6111039 57.2618837,4.74632054 50.6153846,0 L70,0 L70,43 L50.6153846,43 Z" id="Shape" fill="#FCC60A"></path>
                <path d="M8.40691582,21.5000362 C8.40691582,30.3936484 12.745282,38.2524465 19.3841894,43 L0,43 L0,0 L19.3846154,0 C12.745282,4.7471193 8.40691582,12.6059174 8.40691582,21.5000362 Z" id="Shape" fill="#FCC60A"></path>
                <ellipse id="Oval" fill="#FCC60A" cx="34.4615385" cy="21.5" rx="21.5384615" ry="21.5"></ellipse>
                <path d="M46.1298956,23.0706374 L46.1178188,23.0482358 L46.1157694,23.0445144 C46.1084502,23.0219668 46.1029607,22.9983977 46.0946168,22.9740259 L46.0935921,22.9721287 L46.0925674,22.9702315 L46.0915427,22.9683343 L46.090518,22.9664371 L46.0894933,22.9645399 L46.0884686,22.9626427 L46.0864192,22.9589213 C45.8313196,22.1084871 45.3255949,21.3541831 44.6349374,20.7939917 L44.6339128,20.7920945 C44.613492,20.776552 44.5920466,20.7591853 44.5715527,20.7437158 L44.5433004,20.7227736 L44.5228796,20.7073041 L44.5140965,20.7000071 L44.4946273,20.6863618 L44.4858442,20.6790649 L44.466375,20.6654196 L44.4575919,20.6581227 L44.4371711,20.6426532 L44.426485,20.6363048 L44.4060643,20.6208353 L44.3953782,20.614487 L44.3734204,20.5998931 L44.3627343,20.5935448 L44.3497792,20.5739889 L44.3381416,20.5658164 L44.3161838,20.5512225 L44.3045462,20.5430499 L44.2825884,20.528456 L44.2709508,20.5202835 L44.248993,20.5056896 L44.2373554,20.497517 L44.214007,20.4811719 L44.2023694,20.4729993 L44.1771911,20.4576027 L44.1655535,20.4494302 L44.1403753,20.4340336 L44.1287377,20.425861 L44.1035594,20.4104645 L44.0919218,20.4022919 L44.0667436,20.3868954 L44.0532029,20.3795984 L44.0280247,20.3642019 L44.0144841,20.3569049 L43.9874028,20.3423111 L43.9738622,20.3350141 L43.9457562,20.3188149 L43.9322156,20.311518 L43.9041097,20.2953188 L43.8905691,20.2880218 L43.8624631,20.2718226 L43.8478246,20.2627744 L43.8197186,20.2465752 L43.8050801,20.237527 L43.7751444,20.2222764 L43.7605059,20.2132282 L43.7305701,20.1979776 L43.7102958,20.1871781 L43.7093443,20.1852809 C43.6947057,20.1762327 43.6794085,20.1700303 43.6648432,20.1609821 C43.0434893,19.842628 42.3726182,19.6312978 41.6805927,19.5359261 C41.8746414,19.327961 42.0523644,19.1054295 42.2121903,18.8702991 L42.2376613,18.8325739 L42.2395643,18.8315523 L42.2513483,18.813164 L42.266792,18.7880625 L42.2749895,18.7764604 L42.2904332,18.7513589 L42.2986307,18.7397568 L42.3140744,18.7146553 L42.3222719,18.7030532 L42.3377156,18.6779517 L42.3459131,18.6663496 L42.3613568,18.6412481 L42.3695543,18.6296459 L42.383095,18.6054931 L42.3912925,18.5938909 L42.4048332,18.5697381 L42.4112009,18.5590845 L42.4247415,18.5349316 L42.4311093,18.5242781 L42.4446499,18.5001252 L42.4509445,18.4894717 L42.4625821,18.4663404 L42.4689498,18.4556869 L42.4805875,18.4325556 L42.4869552,18.421902 L42.4985928,18.3987707 L42.5049606,18.3881172 L42.5175497,18.3668831 L42.5239175,18.3562296 L42.5365798,18.3349955 L42.5429475,18.3243419 L42.55378,18.3041294 L42.5601478,18.2934759 L42.5709803,18.2732633 L42.575445,18.2636314 L42.5862775,18.2434188 L42.5907423,18.2337869 L42.6015748,18.2135743 L42.6060395,18.2039424 L42.616872,18.1837299 L42.6213368,18.1740979 L42.6302663,18.154834 L42.634731,18.145202 L42.6436605,18.1259381 L42.6481252,18.1163061 L42.6570547,18.0970422 L42.6615195,18.0874102 L42.6713273,18.0655194 L42.6847215,18.0363316 C42.6945293,18.0144408 42.7024341,17.9931337 42.7122419,17.9706592 L42.7141449,17.9696376 C43.0119021,17.2379142 43.0817095,16.4337495 42.914473,15.6619069 L42.9134483,15.6600097 L42.9113989,15.6562883 L42.9103742,15.6543911 L42.9093495,15.6524939 L42.9083248,15.6505967 L42.9073001,15.6486994 L42.9062754,15.6468022 L42.9052507,15.644905 C42.900786,15.6230142 42.8963212,15.6015612 42.8900267,15.5808379 L42.8900267,15.5766786 L42.889002,15.5747814 L42.8879773,15.5728842 L42.8869526,15.570987 L42.8879773,15.5728842 L42.8789014,15.5561013 C42.8723141,15.5259649 42.8656535,15.4958285 42.8561385,15.4648165 C42.8495512,15.4346802 42.8400362,15.4036682 42.8315458,15.3744804 L42.8204937,15.353976 L42.8184443,15.3502545 C42.8120766,15.3296042 42.805782,15.3088809 42.7994143,15.2882305 L42.7983896,15.2863333 L42.7973649,15.2844361 L42.7963402,15.2825389 L42.7953155,15.2806417 L42.7942908,15.2787445 L42.7932661,15.2768473 L42.7923146,15.2749501 C42.5657926,14.5180903 42.1158524,13.8468015 41.5011245,13.3485576 L41.500173,13.3466604 C41.4826068,13.3320665 41.4631376,13.3183482 41.4455714,13.3037544 L41.4213446,13.285512 L41.4018754,13.2718667 L41.3930923,13.2645698 L41.3765508,13.2518001 L41.3677677,13.2445032 L41.351153,13.2317335 L41.3424431,13.2244366 L41.3239253,13.2126885 L41.3151422,13.2053916 L41.2957462,13.1917463 L41.2869631,13.1844494 L41.2674939,13.1708041 L41.2587108,13.1635071 L41.2392415,13.1498619 L41.2285554,13.1435135 L41.2090862,13.1298682 L41.1984001,13.1235199 L41.1789309,13.1098746 L41.1682448,13.1035263 L41.1469457,13.0909026 L41.1362596,13.0845542 L41.1149606,13.0719305 L41.1042744,13.0655822 L41.0829754,13.0529585 L41.0722893,13.0466101 L41.0509903,13.0339864 L41.0403041,13.0276381 L41.0179804,13.0130442 L41.0072943,13.0066959 L40.9849706,12.992102 L40.9742845,12.9857537 L40.9500577,12.9722543 L40.9393716,12.965906 L40.9152181,12.9524066 L40.9035804,12.9442341 L40.8793537,12.9307347 L40.8677161,12.9225621 L40.8435625,12.9090628 L40.8319249,12.9008902 L40.8067467,12.8854937 L40.793206,12.8781967 L40.7673691,12.8622164 L40.7538284,12.8549195 L40.7267472,12.8403256 L40.7132066,12.8330287 L40.6861253,12.8184348 L40.6668025,12.8095325 L40.6657778,12.8076353 L40.6251559,12.7857445 C39.4384116,12.1708312 37.930718,11.9857078 36.4138021,12.3736862 L36.0192209,12.4746759 L35.0211671,8.6 L32.708282,9.19105225 L33.7030422,13.0504046 L31.8525145,13.5262381 L30.8570956,9.67921763 L28.5442106,10.2702699 L29.5389707,14.1296222 L24.7692308,15.3532463 L25.4038835,17.8123155 L27.3257739,17.3202098 C27.9618519,17.1567351 28.6104233,17.5382817 28.7744012,18.1724196 L28.7749867,18.1747546 L31.4426362,28.523058 C31.5513914,28.9462558 31.2959897,29.3773523 30.8717341,29.4866921 L29.1877196,29.918598 L29.2866759,32.8432121 L34.0507801,31.6226528 L35.0583489,35.475 L37.3700629,34.8819776 L36.374644,31.0207281 L38.2248057,30.5478133 L39.2205906,34.4089898 L41.5323046,33.8159674 L40.5331529,29.9396862 C40.9248795,29.837529 41.261858,29.7508414 41.4949764,29.6907146 C43.2044619,29.2523873 44.5868499,28.2532171 45.4233678,27.0072644 L45.4516201,26.9656718 L45.4535231,26.9646502 L45.4672101,26.9452404 L45.4853619,26.9160526 L45.4944377,26.9014587 L45.5125895,26.8722709 L45.5216654,26.8576771 L45.5379141,26.8296568 L45.54699,26.8150629 L45.5632388,26.7870427 L45.570558,26.7735433 L45.5868068,26.7455231 L45.594126,26.7320237 L45.6103748,26.7040035 L45.617694,26.6905041 L45.6323325,26.6635055 L45.6396518,26.6500061 L45.6542903,26.6230074 L45.6616096,26.6095081 L45.6770532,26.5844066 L45.6843725,26.5709073 L45.6998161,26.5458058 L45.7071353,26.5323064 L45.720676,26.5081536 L45.7279952,26.4946542 L45.7415359,26.4705743 L45.7488551,26.457075 L45.7623957,26.4329951 L45.7677388,26.4205173 L45.7812794,26.3964374 L45.7866225,26.3839596 L45.7982601,26.3608283 L45.8046278,26.3501748 L45.8162655,26.3270435 L45.8226332,26.3163899 L45.8342708,26.2932586 L45.8406386,26.2826051 L45.8522762,26.2594738 L45.858644,26.2488203 L45.8702816,26.225689 L45.8766493,26.2150354 L45.8882869,26.1919041 L45.8946547,26.1812506 L45.9044625,26.1593598 L45.9108303,26.1487062 L45.9205649,26.1268154 L45.9250296,26.1171834 L45.9357157,26.0922279 L45.9503542,26.0604862 C45.9610404,26.0355307 45.972312,26.0123994 45.9814611,25.9883924 L45.9823394,25.9855466 C46.3169833,25.1624231 46.3956799,24.2580107 46.2082117,23.3897327 L46.2072601,23.3878355 L46.2062355,23.3859383 L46.2052108,23.3840411 L46.2041861,23.3821439 L46.2031614,23.3802467 L46.2021367,23.3783495 L46.201112,23.3764523 L46.2000873,23.3745551 C46.1945978,23.3509859 46.1891816,23.3274898 46.1836921,23.3039207 L46.1836921,23.2991777 L46.1826674,23.2972804 L46.1816428,23.2953832 L46.1806181,23.293486 L46.1795934,23.2915888 L46.1785687,23.2896916 L46.177544,23.2877944 L46.1765193,23.2858972 L46.1754946,23.284 L46.1744699,23.2821028 L46.1734452,23.2802056 L46.1724205,23.2783084 L46.1713958,23.2764112 L46.1703711,23.274514 L46.1663455,23.267217 C46.1577088,23.2333592 46.1509751,23.1984799 46.1404353,23.1655707 C46.1351111,23.1341522 46.1315921,23.1024562 46.1298956,23.0706374 Z M32.5408906,16.1479562 C32.9354717,16.0469665 34.566934,15.6384837 35.1048994,15.4990392 C35.9601545,15.2807877 36.8029669,15.3655052 37.4609681,15.6814627 L37.4829259,15.6912406 L37.4925873,15.6956918 L37.5061279,15.7029887 L37.5128616,15.7065642 L37.5264022,15.7138611 L37.533136,15.7174366 L37.5466766,15.7247336 L37.5534103,15.7283091 L37.5669509,15.735606 L37.5736846,15.7391815 L37.5872253,15.7464785 L37.593959,15.750054 L37.6074996,15.7573509 L37.6142333,15.7609264 L37.627774,15.7682233 L37.6345077,15.7717988 L37.6480483,15.7790958 L37.654782,15.7826713 L37.6683226,15.7899682 L37.6750563,15.7935437 L37.686694,15.8017163 L37.6934277,15.8052918 L37.7050653,15.8134644 L37.711799,15.8170399 L37.7234366,15.8252125 L37.7301704,15.828788 L37.7408565,15.8351363 L37.7475902,15.8387118 L37.7582763,15.8450601 L37.76501,15.8486356 L37.7756961,15.854984 L37.7824298,15.8585595 L37.793116,15.8649078 L37.7998497,15.8684833 L37.8105358,15.8748317 L37.8154397,15.8794287 L37.8261258,15.8857771 L37.830005,15.8884769 L37.8406911,15.8948253 L37.8445703,15.8975251 L37.8552564,15.9038735 L37.8591357,15.9065734 L37.8698218,15.9129217 L37.873701,15.9156216 L37.8824841,15.9229185 L37.8863633,15.9256184 L37.8970494,15.9319667 L37.9116879,15.9410149 C37.922374,15.9473633 37.9321086,15.9565574 37.9427948,15.9629057 C38.2796458,16.2163925 38.527149,16.5698832 38.6496886,16.9725106 L38.6526895,16.9781292 C38.6558367,16.9884909 38.6600087,17.0006767 38.663156,17.0110384 L38.6641807,17.0129356 L38.6702557,17.0240999 C38.674574,17.0410288 38.6797707,17.0551119 38.6840891,17.0720408 C38.6888397,17.0893187 38.6919277,17.1070086 38.6933113,17.1248707 L38.6993863,17.136035 L38.700411,17.1379322 C38.7020337,17.1495002 38.7049301,17.1608546 38.7090477,17.17179 L38.7120486,17.1774087 C38.798561,17.5889097 38.7524509,18.0171408 38.580302,18.4009598 L38.5651511,18.4355473 L38.5571,18.4518925 L38.5507322,18.462546 L38.5489756,18.4683106 L38.5445108,18.4779425 L38.5427542,18.4837071 L38.5363865,18.4943607 L38.5346298,18.5001252 L38.5282621,18.5107788 L38.5265055,18.5165434 L38.5201377,18.5271969 L38.5183811,18.5329615 L38.5120133,18.543615 L38.5102567,18.5493796 L38.503889,18.5600331 L38.5021323,18.5657977 L38.4957646,18.5764512 L38.4921782,18.5831644 L38.4858104,18.593818 L38.482224,18.6005311 L38.4759294,18.6111847 L38.4722698,18.6178979 L38.4659752,18.6285514 L38.4623888,18.6352646 L38.4541912,18.6468667 L38.4505316,18.6535799 L38.442334,18.6651821 L38.4387476,18.6718952 L38.43055,18.6834974 L38.4269636,18.6902106 L38.418766,18.7018127 L38.4151796,18.7085259 L38.406982,18.720128 L38.4033956,18.7268412 L38.395198,18.7384433 L38.3916116,18.7451565 L38.383414,18.7567587 L38.3798276,18.7634719 L38.37163,18.775074 L38.3680436,18.7817872 L38.357943,18.7944109 L38.3543566,18.8011241 L38.344256,18.8137478 L38.3406695,18.820461 L38.330569,18.8330847 L38.3269825,18.8397979 L38.316882,18.8524216 L38.3095627,18.8611779 L38.2958757,18.8805878 C37.8705537,19.4747047 37.1735409,19.9546975 36.3182858,20.1729491 C35.7792957,20.3105694 34.1517858,20.735981 33.7575706,20.8369707 L32.5408906,16.1479562 Z M41.5810508,24.0814098 L41.5871258,24.0925741 L41.5881505,24.0944713 C41.5904195,24.1076788 41.5936399,24.1180404 41.5959089,24.130956 L41.5969336,24.1328532 L41.5979583,24.1347504 L41.598983,24.1366476 L41.6000077,24.1385448 C41.6912257,24.5923926 41.625675,25.0636594 41.4140254,25.4756364 L41.3933119,25.5132156 L41.3833577,25.5305823 L41.3760384,25.5440817 L41.372452,25.5507949 L41.3660843,25.5614484 L41.3624978,25.5681616 L41.3561301,25.5788151 L41.3525436,25.5855283 L41.3443461,25.5971304 L41.3407596,25.6038436 L41.3325621,25.6154458 L41.3289756,25.6221589 L41.3207781,25.6337611 L41.3171916,25.6404743 L41.3089941,25.6520764 L41.3054076,25.6587896 L41.2972101,25.6703917 L41.2936236,25.6771049 L41.285426,25.688707 L41.2818396,25.6954202 L41.273642,25.7070224 L41.2700556,25.7137356 L41.261858,25.7253377 L41.2582716,25.7320509 L41.250074,25.743653 L41.2464876,25.7503662 L41.236387,25.7629899 L41.2328006,25.7697031 L41.2227,25.7823268 L41.2191136,25.78904 L41.2100377,25.8036339 L41.2064513,25.8103471 L41.1973754,25.8249409 L41.193789,25.8316541 L41.1847131,25.846248 L41.1792236,25.8539828 L41.1701478,25.8685767 L41.1646583,25.8763114 L41.1536794,25.8917809 L41.14819,25.8995157 L41.1372111,25.9149852 L41.1317217,25.92272 L41.1207428,25.9381895 L41.1152533,25.9459242 L41.1042013,25.9613937 L41.0987118,25.9691285 L41.0877329,25.984598 L41.0785107,25.9943759 L41.0610908,26.015756 C40.5445709,26.6733563 39.7114199,27.2142786 38.6995327,27.473247 C38.0613667,27.6375012 36.1331818,28.1402604 35.6640174,28.2596384 L34.3513087,23.1674679 C34.8197412,23.0461927 36.7530496,22.5622595 37.3911424,22.3980054 C38.4031028,22.1390369 39.3966187,22.2125171 40.1644819,22.5394201 L40.1895138,22.5500736 L40.2020297,22.5554004 L40.2203278,22.5626974 L40.2289646,22.5652513 L40.2453597,22.5732779 L40.2539964,22.5758319 L40.2703915,22.5838585 L40.2790283,22.5864124 L40.2954234,22.5944391 L40.3020839,22.5980146 L40.3184791,22.6060412 L40.3252128,22.6096167 L40.3416079,22.6176433 L40.3483416,22.6212188 L40.3647368,22.6292455 L40.3714705,22.632821 L40.3850111,22.6401179 L40.3917448,22.6436934 L40.4052854,22.6509903 L40.4120192,22.6545658 L40.4255598,22.6618628 L40.4322935,22.6654383 L40.4458341,22.6727352 L40.4525678,22.6763107 L40.4661085,22.6836077 L40.4728422,22.6871832 L40.4863828,22.6944801 L40.4931165,22.6980556 L40.5066571,22.7053526 L40.5133909,22.7089281 L40.5269315,22.716225 L40.5336652,22.7198005 L40.5472058,22.7270974 L40.5539395,22.7306729 L40.5655772,22.7388455 L40.5723109,22.742421 L40.5839485,22.7505936 L40.5906822,22.7541691 L40.6023198,22.7623417 L40.6090535,22.7659172 L40.6206912,22.7740897 L40.6274249,22.7776653 L40.6390625,22.7858378 L40.6457962,22.7894133 L40.6564823,22.7957617 L40.663216,22.7993372 L40.6748537,22.8075097 L40.6903705,22.8184552 C40.7020081,22.8266277 40.7155487,22.8338517 40.7269668,22.8420243 C41.1111046,23.1017698 41.3961138,23.4831172 41.535891,23.9243796 L41.5399166,23.9316765 C41.5440886,23.9438624 41.5472359,23.9542241 41.5514078,23.96641 L41.5524325,23.9683072 L41.5585075,23.9794715 C41.5628259,23.9964004 41.5671442,24.0133293 41.5724873,24.0321554 C41.5819291,24.0363147 41.5834662,24.057111 41.5804653,24.0827962 L41.5810508,24.0814098 Z" id="Shape" fill="#FFFFFF"></path>
            </g>
        </g>
    </g>
</svg>