<?xml version="1.0" encoding="UTF-8"?>
<svg width="420px" height="80px" viewBox="0 0 420 80" version="1.1" xmlns="http://www.w3.org/2000/svg" xmlns:xlink="http://www.w3.org/1999/xlink">
    <!-- Generator: Sketch 51.3 (57544) - http://www.bohemiancoding.com/sketch -->
    <title>Slice</title>
    <desc>Created with Sketch.</desc>
    <defs></defs>
    <g id="Page-1" stroke="none" stroke-width="1" fill="none" fill-rule="evenodd">
        <g id="Group-2" transform="translate(20.000000, 20.000000)" fill-rule="nonzero">
            <path d="M47,40 C53.1716172,35.5848181 57.2046205,28.2755383 57.2046205,20.0033989 C57.2046205,11.7312595 53.1717492,4.4151819 47,0 L65,0 L65,40 L47,40 Z" id="Shape" fill="#FCC60A"></path>
            <path d="M7.80642184,20.0000337 C7.80642184,28.2731613 11.8349047,35.5836712 17.9996044,40 L0,40 L0,0 L18,0 C11.8349047,4.41592493 7.80642184,11.7264348 7.80642184,20.0000337 Z" id="Shape" fill="#FCC60A"></path>
            <circle id="Oval" fill="#FCC60A" cx="32" cy="20" r="20"></circle>
            <path d="M42.8349031,21.4610581 L42.8236889,21.4402194 L42.8217859,21.4367576 C42.8149895,21.4157831 42.8098921,21.3938584 42.8021442,21.3711869 L42.8011927,21.3694221 L42.8002412,21.3676572 L42.7992897,21.3658924 L42.7983381,21.3641276 L42.7973866,21.3623627 L42.7964351,21.3605979 L42.7945321,21.3571361 C42.557654,20.5660345 42.0880524,19.8643564 41.4467276,19.3432481 L41.4457761,19.3414833 C41.426814,19.3270252 41.4069004,19.3108701 41.3878703,19.2964798 L41.361636,19.2769987 L41.3426739,19.2626084 L41.3345182,19.2558206 L41.3164396,19.2431273 L41.3082839,19.2363394 L41.2902053,19.2236462 L41.2820496,19.2168583 L41.2630875,19.2024681 L41.2531647,19.1965626 L41.2342026,19.1821724 L41.2242797,19.176267 L41.2038904,19.1626912 L41.1939676,19.1567858 L41.1819378,19.1385944 L41.1711315,19.130992 L41.1507421,19.1174163 L41.1399358,19.1098139 L41.1195464,19.0962382 L41.10874,19.0886358 L41.0883507,19.0750601 L41.0775443,19.0674577 L41.0558636,19.0522529 L41.0450573,19.0446505 L41.0216775,19.0303281 L41.0108711,19.0227257 L40.9874913,19.0084034 L40.976685,19.000801 L40.9533052,18.9864786 L40.9424988,18.9788762 L40.919119,18.9645538 L40.9065456,18.957766 L40.8831658,18.9434436 L40.8705923,18.9366558 L40.8454455,18.9230801 L40.832872,18.9162922 L40.8067737,18.9012232 L40.7942002,18.8944353 L40.7681018,18.8793663 L40.7555284,18.8725784 L40.72943,18.8575094 L40.7158371,18.8490925 L40.6897387,18.8340234 L40.6761458,18.8256065 L40.6483483,18.8114199 L40.6347554,18.8030029 L40.606958,18.7888163 L40.5881318,18.7787703 L40.5872482,18.7770055 C40.5736553,18.7685885 40.5594507,18.7628189 40.5459258,18.7544019 C39.9689544,18.4582586 39.3460026,18.2616724 38.7034075,18.1729545 C38.8835956,17.9794986 39.0486241,17.7724926 39.1970339,17.5537666 L39.2206855,17.5186734 L39.2224526,17.5177231 L39.2333949,17.5006177 L39.2477354,17.4772675 L39.2553474,17.4664748 L39.2696879,17.4431246 L39.2773,17.4323319 L39.2916405,17.4089817 L39.2992525,17.398189 L39.313593,17.3748388 L39.3212051,17.3640461 L39.3355456,17.3406959 L39.3431576,17.3299032 L39.355731,17.3074354 L39.3633431,17.2966427 L39.3759165,17.2741749 L39.3818294,17.2642647 L39.3944029,17.2417969 L39.4003158,17.2318866 L39.4128892,17.2094188 L39.4187342,17.1995086 L39.4295405,17.1779911 L39.4354534,17.1680808 L39.4462598,17.1465633 L39.4521727,17.136653 L39.4629791,17.1151356 L39.468892,17.1052253 L39.4805819,17.0854726 L39.4864948,17.0755624 L39.4982526,17.0558097 L39.5041656,17.0458995 L39.5142243,17.0270971 L39.5201372,17.0171868 L39.530196,16.9983845 L39.5343418,16.9894245 L39.5444006,16.9706222 L39.5485464,16.9616622 L39.5586051,16.9428599 L39.562751,16.9338999 L39.5728097,16.9150975 L39.5769556,16.9061376 L39.5852472,16.8882176 L39.5893931,16.8792577 L39.5976847,16.8613377 L39.6018306,16.8523778 L39.6101223,16.8344579 L39.6142681,16.8254979 L39.6233753,16.8051343 L39.6358128,16.7779829 C39.6449201,16.7576194 39.6522603,16.7377988 39.6613675,16.7168922 L39.6631346,16.715942 C39.9396234,16.035269 40.0044446,15.2872088 39.8491535,14.5692157 L39.848202,14.5674509 L39.846299,14.5639891 L39.8453475,14.5622242 L39.844396,14.5604594 L39.8434445,14.5586946 L39.842493,14.5569297 L39.8415415,14.5551649 L39.84059,14.5534 C39.8364441,14.5330365 39.8322983,14.5130802 39.8264533,14.4938027 L39.8264533,14.4899336 L39.8255018,14.4881688 L39.8245503,14.4864039 L39.8235988,14.4846391 L39.8245503,14.4864039 L39.8161227,14.4707919 C39.8100059,14.442758 39.8038212,14.4147242 39.7949858,14.3858758 C39.788869,14.357842 39.7800336,14.3289936 39.7721497,14.3018422 L39.761887,14.2827684 L39.759984,14.2793066 C39.7540711,14.2600969 39.7482262,14.2408194 39.7423133,14.2216098 L39.7413618,14.219845 L39.7404103,14.2180801 L39.7394587,14.2163153 L39.7385072,14.2145504 L39.7375557,14.2127856 L39.7366042,14.2110208 L39.7357207,14.2092559 C39.5253788,13.5052003 39.1075772,12.8807455 38.5367585,12.4172629 L38.535875,12.415498 C38.5195635,12.4019223 38.5014849,12.3891612 38.4851734,12.3755855 L38.4626772,12.3586158 L38.4445986,12.3459225 L38.4364429,12.3391347 L38.4210829,12.3272559 L38.4129271,12.3204681 L38.3974992,12.3085893 L38.3894114,12.3018015 L38.3722164,12.2908731 L38.3640606,12.2840852 L38.34605,12.2713919 L38.3378943,12.2646041 L38.3198157,12.2519108 L38.31166,12.2451229 L38.2935814,12.2324296 L38.2836586,12.2265242 L38.26558,12.2138309 L38.2556572,12.2079255 L38.2375787,12.1952322 L38.2276558,12.1893268 L38.2078782,12.1775838 L38.1979553,12.1716784 L38.1781777,12.1599354 L38.1682548,12.1540299 L38.1484772,12.142287 L38.1385543,12.1363815 L38.1187767,12.1246385 L38.1088539,12.1187331 L38.0881247,12.1051574 L38.0782018,12.099252 L38.0574727,12.0856763 L38.0475498,12.0797708 L38.0250536,12.0672133 L38.0151308,12.0613079 L37.9927025,12.0487504 L37.9818961,12.041148 L37.9593999,12.0285904 L37.9485935,12.020988 L37.9261652,12.0084305 L37.9153588,12.0008281 L37.891979,11.9865057 L37.8794056,11.9797179 L37.8554141,11.9648525 L37.8428407,11.9580646 L37.8176938,11.9444889 L37.8051204,11.9377011 L37.7799735,11.9241254 L37.7620309,11.9158442 L37.7610794,11.9140794 L37.7233591,11.8937158 C36.6213822,11.3217035 35.221381,11.1494957 33.8128162,11.5104058 L33.4464194,11.6043497 L32.5196552,8 L30.3719762,8.54981605 L31.295682,12.1399112 L29.5773349,12.5825471 L28.6530174,9.00392338 L26.5053384,9.55373943 L27.4290442,13.1438346 L23,14.2820896 L23.5893204,16.5695959 L25.3739329,16.1118231 C25.9645768,15.9597536 26.5668216,16.3146806 26.7190868,16.9045764 L26.7196305,16.9067485 L29.1967336,26.5330772 C29.2977206,26.9267496 29.0605618,27.3277696 28.6666103,27.429481 L27.1028825,27.831254 L27.1947705,30.5518253 L31.6185815,29.4164212 L32.5541811,33 L34.7007727,32.4483512 L33.7764552,28.8564912 L35.4944624,28.4165705 L36.4191198,32.0083626 L38.5657114,31.4567139 L37.6379277,27.8508709 C38.0016738,27.7558409 38.3145825,27.6752013 38.5310495,27.6192694 C40.1184289,27.2115231 41.4020749,26.2820624 42.1788415,25.1230366 L42.2050758,25.0843459 L42.2068429,25.0833956 L42.2195522,25.0653399 L42.2364075,25.0381885 L42.2448351,25.0246128 L42.2616903,24.9974613 L42.2701179,24.9838856 L42.285206,24.9578203 L42.2936336,24.9442446 L42.3087217,24.9181792 L42.3155182,24.9056217 L42.3306063,24.8795563 L42.3374027,24.8669988 L42.3524909,24.8409335 L42.3592873,24.8283759 L42.3728802,24.8032609 L42.3796767,24.7907034 L42.3932696,24.7655883 L42.400066,24.7530308 L42.4144065,24.7296806 L42.421203,24.717123 L42.4355435,24.6937728 L42.44234,24.6812153 L42.4549134,24.6587475 L42.4617099,24.64619 L42.4742833,24.6237901 L42.4810797,24.6112325 L42.4936532,24.5888326 L42.4986146,24.5772254 L42.511188,24.5548255 L42.5161494,24.5432183 L42.5269558,24.5217008 L42.5328687,24.5117905 L42.5436751,24.490273 L42.549588,24.4803627 L42.5603943,24.4588453 L42.5663073,24.448935 L42.5771136,24.4274175 L42.5830265,24.4175072 L42.5938329,24.3959897 L42.5997458,24.3860795 L42.6105522,24.364562 L42.6164651,24.3546517 L42.6255723,24.3342882 L42.6314852,24.3243779 L42.6405245,24.3040143 L42.6446704,24.2950544 L42.6545932,24.2718399 L42.6681861,24.2423128 C42.6781089,24.2190983 42.6885754,24.1975808 42.697071,24.1752488 L42.6978866,24.1726015 C43.0086273,23.4069052 43.0817027,22.5655913 42.9076251,21.7578909 L42.9067416,21.756126 L42.9057901,21.7543612 L42.9048386,21.7525964 L42.9038871,21.7508315 L42.9029356,21.7490667 L42.901984,21.7473018 L42.9010325,21.745537 L42.900081,21.7437721 C42.8949837,21.7218474 42.8899543,21.6999905 42.884857,21.6780657 L42.884857,21.6736536 L42.8839055,21.6718888 L42.882954,21.6701239 L42.8820025,21.6683591 L42.881051,21.6665943 L42.8800995,21.6648294 L42.879148,21.6630646 L42.8781965,21.6612997 L42.877245,21.6595349 L42.8762935,21.6577701 L42.875342,21.6560052 L42.8743905,21.6542404 L42.8734389,21.6524755 L42.8724874,21.6507107 L42.8687494,21.6439228 C42.8607296,21.6124272 42.8544768,21.5799813 42.84469,21.5493681 C42.839746,21.5201416 42.8364784,21.4906569 42.8349031,21.4610581 Z M30.2165413,15.0213546 C30.582938,14.9274107 32.0978673,14.5474267 32.5974066,14.4177109 C33.3915721,14.2146862 34.1741836,14.2934932 34.7851847,14.5874072 L34.805574,14.5965029 L34.8145453,14.6006435 L34.8271188,14.6074313 L34.8333715,14.6107574 L34.8459449,14.6175452 L34.8521977,14.6208713 L34.8647711,14.6276591 L34.8710239,14.6309852 L34.8835973,14.637773 L34.88985,14.6410991 L34.9024235,14.6478869 L34.9086762,14.651213 L34.9212496,14.6580008 L34.9275024,14.6613269 L34.9400758,14.6681147 L34.9463285,14.6714408 L34.958902,14.6782286 L34.9651547,14.6815547 L34.9777282,14.6883425 L34.9839809,14.6916686 L34.9947873,14.699271 L35.00104,14.702597 L35.0118464,14.7101994 L35.0180991,14.7135255 L35.0289054,14.7211279 L35.0351582,14.7244539 L35.045081,14.7303593 L35.0513337,14.7336854 L35.0612566,14.7395908 L35.0675093,14.7429169 L35.0774321,14.7488223 L35.0836849,14.7521484 L35.0936077,14.7580538 L35.0998604,14.7613798 L35.1097832,14.7672853 L35.1143369,14.7715616 L35.1242597,14.777467 L35.1278618,14.7799786 L35.1377846,14.785884 L35.1413867,14.7883955 L35.1513096,14.7943009 L35.1549117,14.7968124 L35.1648345,14.8027179 L35.1684366,14.8052294 L35.1765924,14.8120172 L35.1801945,14.8145287 L35.1901173,14.8204342 L35.2037102,14.8288511 C35.213633,14.8347565 35.2226723,14.8433092 35.2325951,14.8492146 C35.5453854,15.0850162 35.7752098,15.4138448 35.8889965,15.7883819 L35.8917831,15.7936086 C35.8947055,15.8032473 35.8985795,15.814583 35.901502,15.8242218 L35.9024535,15.8259866 L35.9080945,15.836372 C35.9121045,15.8521198 35.9169299,15.8652204 35.9209398,15.8809682 C35.9253511,15.8970407 35.9282186,15.9134964 35.9295034,15.9301123 L35.9351444,15.9404977 L35.9360959,15.9422625 C35.9376028,15.9530234 35.9402923,15.9635857 35.9441157,15.9737582 L35.9469023,15.9789848 C36.0272352,16.3617764 35.9844187,16.7601309 35.8245661,17.1171719 L35.8104975,17.1493463 L35.8030214,17.1645511 L35.7971085,17.1744614 L35.7954773,17.1798238 L35.7913315,17.1887838 L35.7897003,17.1941462 L35.7837874,17.2040564 L35.7821563,17.2094188 L35.7762434,17.2193291 L35.7746122,17.2246915 L35.7686993,17.2346018 L35.7670682,17.2399642 L35.7611552,17.2498744 L35.7595241,17.2552368 L35.7536112,17.2651471 L35.75198,17.2705095 L35.7460671,17.2804198 L35.7427369,17.2866646 L35.7368239,17.2965748 L35.7334937,17.3028197 L35.7276487,17.3127299 L35.7242505,17.3189748 L35.7184056,17.328885 L35.7150753,17.3351299 L35.7074633,17.3459225 L35.704065,17.3521674 L35.696453,17.36296 L35.6931228,17.3692049 L35.6855107,17.3799976 L35.6821805,17.3862424 L35.6745684,17.3970351 L35.6712382,17.4032799 L35.6636262,17.4140726 L35.6602959,17.4203174 L35.6526839,17.4311101 L35.6493536,17.4373549 L35.6417416,17.4481476 L35.6384113,17.4543924 L35.6307993,17.4651851 L35.627469,17.4714299 L35.6180899,17.4831729 L35.6147597,17.4894177 L35.6053806,17.5011607 L35.6020503,17.5074055 L35.5926712,17.5191485 L35.5893409,17.5253934 L35.5799618,17.5371363 L35.5731654,17.5452818 L35.560456,17.5633375 C35.1655141,18.1160044 34.518288,18.5625093 33.7241225,18.765534 C33.2236317,18.8935529 31.7123725,19.2892847 31.3463156,19.3832286 L30.2165413,15.0213546 Z M38.6109758,22.4013114 L38.6166168,22.4116968 L38.6175683,22.4134617 C38.6196752,22.4257477 38.6226657,22.4353864 38.6247726,22.4474009 L38.6257241,22.4491658 L38.6266756,22.4509306 L38.6276271,22.4526955 L38.6285786,22.4544603 C38.713281,22.8766443 38.6524125,23.315032 38.4558807,23.6982664 L38.4366468,23.7332238 L38.4274036,23.7493789 L38.4206071,23.7619364 L38.4172769,23.7681813 L38.411364,23.7780915 L38.4080337,23.7843364 L38.4021208,23.7942466 L38.3987905,23.8004914 L38.3911785,23.8112841 L38.3878482,23.817529 L38.3802362,23.8283216 L38.3769059,23.8345665 L38.3692939,23.8453591 L38.3659637,23.851604 L38.3583516,23.8623967 L38.3550214,23.8686415 L38.3474093,23.8794342 L38.3440791,23.885679 L38.336467,23.8964717 L38.3331368,23.9027165 L38.3255248,23.9135092 L38.3221945,23.919754 L38.3145825,23.9305467 L38.3112522,23.9367915 L38.3036402,23.9475842 L38.3003099,23.953829 L38.2909308,23.965572 L38.2876006,23.9718168 L38.2782214,23.9835598 L38.2748912,23.9898046 L38.2664636,24.0033804 L38.2631333,24.0096252 L38.2547057,24.0232009 L38.2513755,24.0294457 L38.2429479,24.0430214 L38.2378505,24.0502165 L38.2294229,24.0637922 L38.2243256,24.0709874 L38.2141309,24.0853776 L38.2090336,24.0925727 L38.1988389,24.106963 L38.1937415,24.1141581 L38.1835469,24.1285483 L38.1784495,24.1357435 L38.1681869,24.1501337 L38.1630895,24.1573288 L38.1528949,24.1717191 L38.1443313,24.1808148 L38.1281558,24.2007032 C37.6485301,24.8124245 36.8748899,25.315608 35.9352804,25.5565089 C35.3426977,25.7093034 33.5522402,26.1769865 33.1165876,26.2880357 L31.8976438,21.5511329 C32.3326168,21.4383188 34.1278318,20.9881484 34.7203465,20.8353539 C35.660024,20.594453 36.5825745,20.6628066 37.2955903,20.9669024 L37.3188342,20.9768127 L37.3304561,20.9817678 L37.3474473,20.9885557 L37.3554671,20.9909314 L37.3706911,20.9983981 L37.378711,21.0007738 L37.393935,21.0082405 L37.4019548,21.0106162 L37.4171789,21.0180828 L37.4233636,21.0214089 L37.4385877,21.0288755 L37.4448404,21.0322016 L37.4600645,21.0396682 L37.4663172,21.0429943 L37.4815413,21.0504609 L37.487794,21.0537869 L37.5003675,21.0605748 L37.5066202,21.0639008 L37.5191936,21.0706887 L37.5254464,21.0740147 L37.5380198,21.0808026 L37.5442725,21.0841286 L37.556846,21.0909165 L37.5630987,21.0942425 L37.5756721,21.1010304 L37.5819249,21.1043564 L37.5944983,21.1111443 L37.6007511,21.1144703 L37.6133245,21.1212582 L37.6195772,21.1245842 L37.6321507,21.1313721 L37.6384034,21.1346981 L37.6509768,21.141486 L37.6572296,21.144812 L37.6680359,21.1524144 L37.6742887,21.1557405 L37.685095,21.1633429 L37.6913478,21.1666689 L37.7021541,21.1742713 L37.7084069,21.1775974 L37.7192132,21.1851998 L37.725466,21.1885258 L37.7362723,21.1961282 L37.7425251,21.1994543 L37.7524479,21.2053597 L37.7587006,21.2086857 L37.769507,21.2162881 L37.7839155,21.2264699 C37.7947218,21.2340723 37.8072953,21.2407923 37.8178977,21.2483947 C38.1745971,21.4900184 38.4392485,21.8447602 38.5690417,22.2552368 L38.5727797,22.2620247 C38.5766537,22.2733604 38.5795762,22.2829991 38.5834501,22.2943349 L38.5844016,22.2960997 L38.5900427,22.3064851 C38.5940526,22.3222329 38.5980625,22.3379807 38.6030239,22.3554934 C38.6117913,22.3593625 38.6132186,22.3787079 38.610432,22.4026011 L38.6109758,22.4013114 Z" id="Shape" fill="#FFFFFF"></path>
        </g>
        <path d="M116.230197,59 C114.219009,59 112.207821,58.9464952 110.223812,58.8127332 C108.131083,58.6742071 106.051143,58.3881142 104,57.9566563 L104,22.9377625 C105.843021,22.6068299 107.702937,22.374634 109.571534,22.2422001 C111.582722,22.0816857 113.458019,22.0014285 115.197425,22.0014285 C117.355571,21.9824531 119.511152,22.1525559 121.638663,22.5097241 C123.412654,22.7689973 125.124899,23.3398646 126.693811,24.1951254 C128.060232,24.9442108 129.203433,26.0326056 130.009553,27.3519088 C130.797721,28.6627765 131.205395,30.2679206 131.205395,32.1673411 C131.205395,35.0566005 129.792127,37.3305546 126.965593,38.9892036 C129.30292,39.8452804 130.879256,41.0491385 131.721781,42.5205206 C132.582007,44.0698323 133.021954,45.8112654 132.999157,47.5767245 C132.999157,51.3755655 131.58589,54.2113201 128.786533,56.1107406 C125.932821,58.0636659 121.774554,59 116.230197,59 Z M112.044752,36.6082398 L116.067128,36.6082398 C118.62188,36.6082398 120.415643,36.287211 121.52995,35.6451533 C122.617078,35.0030957 123.160643,33.959752 123.160643,32.5418747 C123.160643,31.0704927 122.5899,30.0539014 121.475593,29.4653486 C120.334108,28.8767957 118.676237,28.5825193 116.50198,28.5825193 C115.795346,28.5825193 115.034356,28.5825193 114.219009,28.6092717 C113.403663,28.6360241 112.697029,28.6627765 112.044752,28.7430337 L112.044752,36.6082398 Z M112.044752,42.814797 L112.044752,52.1513852 C112.642673,52.2316424 113.29495,52.2851472 114.001584,52.3118996 C114.708217,52.338652 115.496386,52.3654044 116.33891,52.3654044 C118.812128,52.3654044 120.796138,52.0176232 122.318118,51.3220607 C123.840098,50.6264983 124.601088,49.342383 124.601088,47.4697149 C124.601088,45.811066 123.975989,44.6072079 122.698613,43.9116455 C121.421237,43.1893306 119.600296,42.8415494 117.235791,42.8415494 L112.044752,42.814797 Z" id="Shape" fill="#4D4D4D" fill-rule="nonzero"></path>
        <path d="M145,24.4935746 C145,25.8780111 144.560345,26.9751116 143.655172,27.7848764 C141.850731,29.3869062 139.149269,29.3869062 137.344828,27.7848764 C136.465517,26.9751116 136,25.9041325 136,24.4935746 C136,23.1091382 136.439655,22.0120376 137.344828,21.2022729 C138.210435,20.4167498 139.336398,19.9879486 140.5,20.0006865 C141.66491,19.9804037 142.793515,20.4102112 143.655172,21.2022729 C144.560345,22.0120376 145,23.1091382 145,24.4935746 Z M144.275862,59 L136.775862,59 L136.775862,32.2255216 L144.275862,32.2255216 L144.275862,59 Z" id="Shape" fill="#4D4D4D" fill-rule="nonzero"></path>
        <path d="M150.026553,24.2523526 L157.691699,23 L157.691699,31.0470319 L166.916307,31.0470319 L166.916307,37.4953157 L157.691699,37.4953157 L157.691699,47.0878041 C157.691699,48.7131979 157.982446,50.0188422 158.537509,50.978091 C159.092571,51.9373398 160.255559,52.4436101 161.973609,52.4436101 C162.824849,52.4407198 163.674097,52.3604575 164.511037,52.2037978 C165.32877,52.0572009 166.133217,51.8433192 166.916307,51.5642986 L168,57.5862496 C166.995534,57.993668 165.961706,58.3232555 164.90751,58.5721443 C163.536003,58.87353 162.134924,59.0165616 160.731326,58.9984771 C158.643235,58.9984771 156.898753,58.7053733 155.524313,58.1458115 C154.23415,57.6510315 153.095039,56.8242226 152.22037,55.7476894 C151.368135,54.6656069 150.779678,53.3970124 150.50232,52.043923 C150.163204,50.4592028 149.994829,48.8421997 150.000121,47.2210331 L150.026553,24.2523526 Z" id="Shape" fill="#4D4D4D" fill-rule="nonzero"></path>
        <path d="M169.000401,44.4745448 C168.986963,42.5614974 169.311248,40.6613276 169.958062,38.8630659 C171.176219,35.3919105 173.78205,32.5962395 177.140519,31.1573509 C179.006151,30.3558233 181.018871,29.9623452 183.046094,30.0028361 C184.386732,29.9902208 185.724732,30.1252657 187.036348,30.4055738 C188.238768,30.6713818 189.41425,31.0488784 190.547771,31.5332394 L188.95167,37.7622495 C188.168224,37.4739487 187.368822,37.2318971 186.557518,37.0373216 C185.607393,36.8123337 184.633796,36.7041515 183.657933,36.7151314 C181.370188,36.7151314 179.667679,37.4400593 178.550408,38.8630659 C177.433137,40.2860725 176.874502,42.1655152 176.874502,44.5013939 C176.874502,46.9715186 177.406536,48.9046597 178.444002,50.2471187 C179.508069,51.616427 181.343586,52.2876565 183.950552,52.2876565 C184.958341,52.2857131 185.964078,52.1958817 186.956543,52.0191647 C187.970541,51.8633049 188.962052,51.5838203 189.909331,51.1868401 L191,57.5769452 C189.908775,58.018843 188.777212,58.3515778 187.621585,58.5703649 C186.149169,58.8591545 184.652458,59.0030246 183.152501,58.9999518 C180.651942,58.9999518 178.523807,58.6240633 176.714892,57.8722862 C175.026942,57.1982071 173.509251,56.1525402 172.272409,54.8114795 C171.101125,53.5008625 170.237363,51.9408031 169.745249,50.2471187 C169.2489,48.3638879 168.998498,46.4232679 169.000401,44.4745448 Z" id="Shape" fill="#4D4D4D" fill-rule="nonzero"></path>
        <path d="M217.999147,45.4466529 C218.018714,47.4669688 217.70156,49.4763549 217.060796,51.3917392 C216.494777,53.1009884 215.571598,54.6692902 214.352985,55.9917833 C213.158011,57.2711721 211.704726,58.2799956 210.090192,58.9508761 C206.530993,60.349708 202.576856,60.349708 199.017656,58.9508761 C197.403123,58.2799956 195.949838,57.2711721 194.754864,55.9917833 C193.534396,54.6611617 192.59505,53.0963813 191.993432,51.3917392 C191.310872,49.4855744 190.974887,47.4719439 191.001462,45.4466529 C190.978675,43.4281048 191.323947,41.4223897 192.020242,39.5284675 C192.634621,37.8337617 193.593231,36.2856286 194.835294,34.9822251 C196.046362,33.7161223 197.507352,32.7174511 199.124896,32.0500332 C200.84157,31.3389547 202.683413,30.9821467 204.540519,31.0009003 C206.415223,30.9796025 208.275091,31.3363701 210.009762,32.0500332 C211.62286,32.7111718 213.076319,33.7109439 214.272555,34.9822251 C215.492238,36.2929401 216.431959,37.840036 217.033986,39.5284675 C217.686243,41.4324118 218.012574,43.4334096 217.999147,45.4466529 Z M210.063382,45.4466529 C210.063382,43.0255771 209.580802,41.1425181 208.615642,39.7705751 C207.650481,38.3986321 206.28317,37.6992102 204.513709,37.6992102 C202.744248,37.6992102 201.350128,38.3986321 200.384967,39.7705751 C199.419806,41.1425181 198.910416,43.0524779 198.910416,45.4466529 C198.910416,47.8677288 199.392996,49.7776886 200.384967,51.1765325 C201.350128,52.6022771 202.744248,53.3016991 204.513709,53.3016991 C206.28317,53.3016991 207.650481,52.6022771 208.615642,51.1765325 C209.580802,49.7507878 210.063382,47.840828 210.063382,45.4466529 Z" id="Shape" fill="#4D4D4D" fill-rule="nonzero"></path>
        <path d="M230,24.4935746 C230,25.8780111 229.560345,26.9751116 228.655172,27.7848764 C226.850731,29.3869062 224.149269,29.3869062 222.344828,27.7848764 C221.465517,26.9751116 221,25.9041325 221,24.4935746 C221,23.1091382 221.439655,22.0120376 222.344828,21.2022729 C223.210435,20.4167498 224.336398,19.9879486 225.5,20.0006865 C226.66491,19.9804037 227.793515,20.4102112 228.655172,21.2022729 C229.560345,22.0120376 230,23.1091382 230,24.4935746 Z M229.301724,59 L221.801724,59 L221.801724,32.2255216 L229.301724,32.2255216 L229.301724,59 Z" id="Shape" fill="#4D4D4D" fill-rule="nonzero"></path>
        <path d="M234,32.5763359 C235.706493,32.115966 237.440138,31.75906 239.191143,31.5076336 C241.394366,31.1720819 243.620434,31.0023775 245.84994,31 C248.214492,31 250.171363,31.2938931 251.747731,31.9083969 C253.195013,32.4298644 254.47857,33.3140284 255.471222,34.4732824 C256.415442,35.6313252 257.08407,36.9824051 257.428092,38.4274809 C257.825178,40.0999535 258.016798,41.8132037 257.998846,43.5305344 L257.998846,59 L250.117006,59 L250.117006,44.4656489 C250.117006,41.9541985 249.79086,40.1908397 249.111391,39.148855 C248.431922,38.1068702 247.181699,37.5992366 245.360722,37.5992366 C244.789968,37.5992366 244.192036,37.6259542 243.566924,37.6793893 C242.941813,37.7328244 242.371059,37.7862595 241.881841,37.8664122 L241.881841,59 L234,59 L234,32.5763359 Z" id="Shape" fill="#4D4D4D" fill-rule="nonzero"></path>
        <path d="M280.942437,60.9966899 C275.086666,60.9966899 270.632732,59.3939069 267.580633,56.1883409 C264.519663,52.9827749 262.993613,48.4284188 263.002486,42.5252727 C262.960971,39.8416796 263.43981,37.1750148 264.413194,34.6690085 C265.262769,32.4810656 266.568606,30.4937684 268.246062,28.8359294 C269.89741,27.2404655 271.876042,26.0129904 274.048598,25.2362364 C276.394967,24.3991959 278.873512,23.9810329 281.368311,24.0013053 C282.760193,23.9863022 284.150416,24.1006655 285.520584,24.342882 C286.628053,24.5236665 287.721855,24.7782412 288.794492,25.1048608 C289.597679,25.3418589 290.38084,25.640556 291.1368,25.9982152 C291.748995,26.3135168 292.201486,26.549993 292.494274,26.7076438 L290.151966,33.1450509 C288.923103,32.5183732 287.629051,32.0250231 286.292481,31.6736436 C284.661401,31.2417302 282.976912,31.0382972 281.288459,31.0693155 C280.047546,31.0714057 278.815484,31.2755905 277.641911,31.6736436 C276.45287,32.0940714 275.371671,32.7667436 274.474472,33.6442784 C273.501366,34.6459394 272.749137,35.8358305 272.26525,37.1388708 C271.70629,38.584003 271.440118,40.3181617 271.440118,42.3676219 C271.43395,43.9069899 271.612644,45.4416536 271.972461,46.9394947 C272.300555,48.2620976 272.898299,49.5048066 273.729192,50.591738 C274.58038,51.6469143 275.675764,52.4849295 276.923249,53.0353252 C278.227489,53.6396532 279.824517,53.9286796 281.687716,53.9286796 C282.747224,53.9322643 283.805668,53.8620227 284.855156,53.7184786 C285.699633,53.6080976 286.535555,53.4413057 287.357167,53.2192511 C288.011085,53.0567602 288.651702,52.845965 289.273601,52.5886479 C289.832561,52.3521718 290.338286,52.1156956 290.76416,51.9317697 L293,58.3429017 C291.855463,59.0260551 290.258435,59.6303831 288.182298,60.1821608 C285.814548,60.7599482 283.381169,61.0337183 280.942437,60.9966899 Z" id="Shape" fill="#FCC60A" fill-rule="nonzero"></path>
        <path d="M306.892644,32 C309.232307,32 311.163889,32.2609348 312.714596,32.7567109 C314.131635,33.1702941 315.414728,33.9248544 316.441734,34.9485631 C317.388502,35.9228919 318.070576,37.1058243 318.427727,38.3929023 C318.823293,39.8671657 319.015372,41.3848551 318.99904,42.9070742 L318.99904,58.6675355 C317.856414,58.9023768 316.305707,59.1894051 314.292508,59.5025268 C311.87059,59.8530553 309.423504,60.0188335 306.97426,59.9983029 C305.328981,60.0131224 303.686931,59.8556286 302.077291,59.5286203 C300.731317,59.2626874 299.448868,58.7582852 298.295743,58.041292 C297.24594,57.3579296 296.401625,56.4221527 295.847258,55.3275702 C295.275945,54.2055506 295.003891,52.8486897 295.003891,51.2048005 C294.959385,49.8229679 295.29731,48.4544866 295.983285,47.2385917 C296.604397,46.1740137 297.504692,45.2835299 298.595002,44.6553373 C299.750381,43.9776713 301.021282,43.500688 302.349345,43.2462894 C303.798284,42.9513971 305.275417,42.8027247 306.756617,42.8027003 C307.665203,42.8011505 308.573263,42.8446979 309.477156,42.9331677 C310.131514,42.9818735 310.778839,43.0955537 311.408738,43.2723829 L311.408738,42.567859 C311.408738,41.2892785 311.000657,40.2455394 310.184495,39.462735 C309.368334,38.6799306 307.953654,38.2885284 305.940456,38.2885284 C304.610977,38.2922308 303.283518,38.3881572 301.96847,38.5755567 C300.8097,38.7227981 299.670021,38.9851419 298.567797,39.3583611 L297.561198,33.252487 C298.023689,33.1220196 298.595002,32.9654587 299.275137,32.8088978 C299.955271,32.652337 300.717022,32.5218696 301.533184,32.3914022 C302.349345,32.2609348 303.192712,32.1826544 304.09049,32.0782804 C305.042678,32.052187 305.967661,32 306.892644,32 Z M307.518368,54.1533636 C308.307324,54.1533636 309.041869,54.1272702 309.749209,54.1011767 C310.314736,54.0893781 310.878552,54.0370453 311.435943,53.9446158 L311.435943,48.2040504 C310.959392,48.1106509 310.47812,48.040975 309.994058,47.9953026 C309.416604,47.9248003 308.835026,47.8899372 308.252913,47.8909287 C307.552498,47.8927544 306.852878,47.9363275 306.158099,48.0213961 C305.558896,48.0795706 304.976984,48.2478952 304.44416,48.5171722 C303.973287,48.7359015 303.570063,49.0686812 303.274328,49.4826309 C302.981086,49.9367003 302.83,50.4620027 302.839042,50.9960527 C302.839042,52.1702592 303.247123,53.0052506 304.09049,53.4488397 C304.933856,53.9446158 306.076483,54.1533636 307.518368,54.1533636 Z" id="Shape" fill="#FCC60A" fill-rule="nonzero"></path>
        <path d="M332.421324,53.7015223 C333.831861,53.7015223 334.843189,53.5670346 335.428695,53.2711617 C336.014201,53.0021864 336.306954,52.4373382 336.306954,51.6573097 C336.306954,51.0386664 335.934359,50.4738182 335.162556,50.0165601 C334.051409,49.3798784 332.884279,48.8486227 331.676134,48.4296056 C330.550838,48.016503 329.449101,47.5405809 328.376009,47.0040363 C327.452491,46.564542 326.607197,45.973801 325.874302,45.2556965 C325.17562,44.564049 324.631194,43.7295358 324.277468,42.8080209 C323.878236,41.7155562 323.688558,40.5562334 323.718576,39.3920341 C323.718576,36.8098708 324.676676,34.7656582 326.566264,33.2593963 C328.455851,31.7531344 331.064014,31.0000034 334.390753,31.0000034 C335.989481,30.9991641 337.584652,31.1522753 339.154642,31.4572615 C340.386738,31.6728901 341.597839,31.9968923 342.774134,32.4255727 L341.416825,38.5044155 C340.458157,38.1682023 339.480596,37.8897719 338.489295,37.6705919 C337.326871,37.4128493 336.139692,37.2865513 334.949645,37.2940264 C332.527779,37.2940264 331.330153,37.9664648 331.330153,39.338239 C331.323838,39.6245172 331.378288,39.9088399 331.489837,40.1720626 C331.631189,40.45435 331.841976,40.6951698 332.101957,40.8713985 C332.506902,41.1492084 332.934228,41.3921407 333.379424,41.5976319 C334.044938,41.9255425 334.729249,42.212962 335.428695,42.458353 C336.872105,42.986052 338.277203,43.6151981 339.633693,44.3411804 C340.604105,44.8573534 341.484993,45.5296019 342.241856,46.3315979 C342.85736,47.0128293 343.320314,47.8201641 343.599165,48.6985809 C343.882,49.6858185 344.016569,50.710379 343.998374,51.7380023 C343.998374,54.4546532 342.987045,56.5257633 340.964388,57.8975376 C338.941731,59.2962094 336.094043,59.9955453 332.39471,59.9955453 C330.363711,60.0337537 328.335491,59.8260612 326.353352,59.376902 C325.216345,59.0934018 324.096661,58.7431395 323,58.3278981 L324.304082,51.9800801 C325.617472,52.5015847 326.970282,52.9153508 328.349396,53.2173666 C329.683598,53.5374363 331.050051,53.6999087 332.421324,53.7015223 Z" id="Shape" fill="#FCC60A" fill-rule="nonzero"></path>
        <path d="M347,60 L347,21.2433862 L354.881396,20 L354.881396,32.989418 C355.550303,32.7837573 356.23087,32.6159286 356.919688,32.4867725 C357.716172,32.3316678 358.526202,32.2519314 359.338461,32.2486772 C361.594171,32.2486772 363.469399,32.5396825 364.964147,33.1481481 C366.360805,33.6867192 367.594861,34.5603646 368.551541,35.6878307 C369.468226,36.8441832 370.117191,38.1798202 370.453947,39.6031746 C370.841443,41.260358 371.023921,42.95671 370.997491,44.6560847 L370.997491,59.973545 L363.116095,59.973545 L363.116095,45.5820106 C363.116095,43.0952381 362.789969,41.3492063 362.137715,40.3174603 C361.485462,39.2857143 360.262487,38.7830688 358.523144,38.7830688 C357.856915,38.7751772 357.191755,38.8372648 356.539207,38.968254 C355.979924,39.0725266 355.426576,39.2049798 354.881396,39.3650794 L354.881396,59.973545 L347,59.973545 L347,60 Z" id="Shape" fill="#FCC60A" fill-rule="nonzero"></path>
    </g>
</svg>