<?xml version="1.0" encoding="UTF-8"?>
<svg width="400px" height="59px" viewBox="0 0 400 59" version="1.1" xmlns="http://www.w3.org/2000/svg" xmlns:xlink="http://www.w3.org/1999/xlink">
    <!-- Generator: Sketch 51.3 (57544) - http://www.bohemiancoding.com/sketch -->
    <title>Slice</title>
    <desc>Created with Sketch.</desc>
    <defs></defs>
    <g id="Page-1" stroke="none" stroke-width="1" fill="none" fill-rule="evenodd">
        <g id="Text" transform="translate(100.000000, 8.000000)" fill-rule="nonzero">
            <g id="Cash" transform="translate(171.000000, 0.000000)" fill="#FFFFFF">
                <path d="M91.1123596,42.9268293 L91.1123596,1.33436572 L99.6136404,0 L99.6136404,13.9398632 C100.335158,13.7191542 101.069253,13.5390453 101.812247,13.4004388 C102.671376,13.233985 103.545117,13.1484141 104.421261,13.1449219 C106.854386,13.1449219 108.877105,13.4572203 110.489417,14.1102078 C111.995925,14.6881864 113.327042,15.6257572 114.358965,16.8357207 C115.347749,18.0766845 116.047757,19.5100509 116.410999,21.0375532 C116.828972,22.8159939 117.025802,24.6364693 116.997294,26.4601884 L116.997294,42.8984385 L108.496013,42.8984385 L108.496013,27.453865 C108.496013,24.7851336 108.144236,22.9113434 107.440682,21.8041038 C106.737127,20.6968641 105.417963,20.1574397 103.541818,20.1574397 C102.823189,20.1489707 102.105713,20.2156012 101.401841,20.356175 C100.798569,20.4680773 100.2017,20.6102222 99.6136404,20.7820364 L99.6136404,42.8984385 L91.1123596,42.8984385 L91.1123596,42.9268293 Z" id="Shape"></path>
                <path d="M75.3870456,36.1674873 C76.9085239,36.1674873 77.9993951,36.0231591 78.6309521,35.705637 C79.2625091,35.4169805 79.5782876,34.8108019 79.5782876,33.9736982 C79.5782876,33.3097883 79.1763877,32.7036097 78.3438807,32.2128937 C77.1453402,31.5296256 75.8864138,30.9594975 74.5832458,30.5098206 C73.3694427,30.066491 72.1810526,29.5557454 71.0235608,28.9799413 C70.0274055,28.5082889 69.1156278,27.874323 68.3250899,27.1036743 C67.5714555,26.3614185 66.9842089,25.4658433 66.6026617,24.4769005 C66.1720296,23.3044994 65.9674335,22.0603481 65.9998118,20.8109634 C65.9998118,18.0398614 67.0332687,15.8460722 69.0714755,14.229596 C71.1096822,12.6131198 73.9229816,11.8048817 77.5113737,11.8048817 C79.235845,11.803981 80.956479,11.9682955 82.6499512,12.2955977 C83.9789535,12.527004 85.2853099,12.8747136 86.5541219,13.334761 L85.0900579,19.8583971 C84.0559898,19.497583 83.001542,19.1987796 81.9322728,18.963562 C80.6784225,18.6869602 79.3978699,18.5514209 78.1142236,18.559443 C75.5018741,18.559443 74.210053,19.2810842 74.210053,20.7532321 C74.203241,21.0604575 74.2619735,21.3655843 74.3822958,21.6480672 C74.534766,21.9510098 74.7621312,22.2094505 75.0425599,22.398574 C75.4793555,22.6967114 75.9402909,22.9574192 76.4205025,23.1779464 C77.1383606,23.5298505 77.876493,23.8383006 78.6309521,24.1016471 C80.1878885,24.6679582 81.7035004,25.3431394 83.1666797,26.1222424 C84.213417,26.6761842 85.1635876,27.3976215 85.9799791,28.2583002 C86.6438944,28.9893778 87.14326,29.8557859 87.4440431,30.7984771 C87.7491233,31.8579516 87.894277,32.9574799 87.8746502,34.0602951 C87.8746502,36.9757254 86.783779,39.1983802 84.6020366,40.6705281 C82.4202942,42.1715418 79.3486305,42.9220486 75.3583385,42.9220486 C73.1675985,42.9630528 70.9798553,42.7401632 68.8418184,42.2581387 C67.6153832,41.9538946 66.4076339,41.5780033 65.2247191,41.1323785 L66.6313688,34.3200859 C68.0480592,34.8797494 69.5072702,35.3237911 70.9948536,35.6479057 C72.4339932,35.991395 73.90792,36.1657556 75.3870456,36.1674873 Z" id="Shape"></path>
                <path d="M47.8504925,12.8780488 C50.3741739,12.8780488 52.4576784,13.1580764 54.1303509,13.6901288 C55.658842,14.1339742 57.0428522,14.9437462 58.1506341,16.0423604 C59.171867,17.0879816 59.9075876,18.35747 60.2928288,19.7387245 C60.7195076,21.3208607 60.9266935,22.9496006 60.9090766,24.5832016 L60.9090766,41.4968674 C59.676581,41.7488922 58.0039085,42.0569225 55.8323686,42.3929556 C53.219962,42.7691325 50.5804092,42.9470409 47.9385279,42.925008 C46.1638445,42.9409119 44.3926449,42.7718942 42.656404,42.4209584 C41.2045661,42.135567 39.8212514,41.5942573 38.5774305,40.8248012 C37.4450585,40.0914367 36.534337,39.0871883 35.9363685,37.9125144 C35.3201208,36.7083958 35.0266694,35.2522524 35.0266694,33.4880786 C34.9786625,32.0051363 35.3431662,30.5365222 36.0830942,29.2316594 C36.753057,28.0891854 37.7241619,27.1335443 38.900227,26.4593864 C40.1464789,25.7321351 41.5173374,25.2202505 42.9498553,24.9472374 C44.5127558,24.6307677 46.1060674,24.4712167 47.7037668,24.4711906 C48.683814,24.4695274 49.6632948,24.5162612 50.6382801,24.6112043 C51.3441045,24.663474 52.0423428,24.7854722 52.7217845,24.9752402 L52.7217845,24.2191657 C52.7217845,22.8470306 52.2816076,21.7269203 51.4012536,20.8868375 C50.5208996,20.0467548 48.9949527,19.6267134 46.8234128,19.6267134 C45.3893684,19.6306868 43.957503,19.7336321 42.5390234,19.9347438 C41.2891144,20.0927589 40.0597978,20.3742986 38.8708818,20.7748265 L37.7851119,14.2221812 C38.2839792,14.0821674 38.900227,13.9141508 39.6338553,13.7461343 C40.3674836,13.5781177 41.1891473,13.4381039 42.0695013,13.2980901 C42.9498553,13.1580764 43.8595544,13.0740681 44.8279438,12.9620571 C45.8550235,12.9340543 46.852758,12.8780488 47.8504925,12.8780488 Z M48.5254305,36.6523903 C49.3764394,36.6523903 50.168758,36.6243875 50.9317314,36.5963847 C51.5417378,36.5837228 52.1498987,36.5275608 52.7511297,36.4283682 L52.7511297,30.2677614 C52.2370972,30.1675278 51.7179719,30.0927537 51.1958376,30.0437394 C50.5729661,29.9680783 49.9456458,29.9306643 49.3177491,29.9317284 C48.5622451,29.9336877 47.8075989,29.9804491 47.0581739,30.0717421 C46.4118427,30.1341734 45.7841622,30.3148144 45.2094305,30.6037945 C44.7015227,30.8385285 44.2665844,31.1956579 43.9475898,31.6398966 C43.6312836,32.1271906 43.4683145,32.6909297 43.4780677,33.2640565 C43.4780677,34.5241807 43.9182447,35.4202689 44.8279438,35.8963158 C45.7376429,36.4283682 46.9701385,36.6523903 48.5254305,36.6523903 Z" id="Shape"></path>
                <path d="M19.8592574,43.9964477 C13.5429209,43.9964477 8.73867707,42.2763879 5.44652591,38.8362683 C2.14480455,35.3961487 0.498728968,30.508547 0.508299175,24.1734634 C0.463519575,21.2935099 0.980020143,18.4317232 2.02996206,15.7423506 C2.9463578,13.3943143 4.3549005,11.2616052 6.16429142,9.48246081 C7.94552094,7.77025565 10.0797759,6.4529653 12.4232067,5.61937567 C14.9541215,4.72108826 17.6276086,4.272328 20.3186274,4.29408369 C21.8199835,4.27798286 23.3195498,4.40071422 24.7974842,4.66065382 C25.9920568,4.85466645 27.1718888,5.12786864 28.3288905,5.47838717 C29.1952488,5.73272663 30.0400071,6.05327963 30.8554251,6.43710902 C31.5157694,6.77548144 32.0038499,7.02926076 32.3196667,7.19844697 L29.7931321,14.1068839 C28.4676164,13.4343518 27.0717852,12.9049028 25.6300922,12.5278126 C23.8707242,12.0642958 22.0537483,11.8459775 20.2324955,11.8792655 C18.8939822,11.8815086 17.5650165,12.1006337 16.2991405,12.5278126 C15.0165789,12.9790035 13.8503418,13.7008956 12.8825766,14.6426402 C11.8329339,15.7175935 11.0215407,16.9945498 10.4995951,18.3929345 C9.8966721,19.9438081 9.60956589,21.8048565 9.60956589,24.0042772 C9.60291183,25.6562818 9.79566063,27.3032381 10.1837783,28.9106773 C10.5376777,30.330056 11.182435,31.6636949 12.0786793,32.8301578 C12.996814,33.9625421 14.1783525,34.8618756 15.5239537,35.4525441 C16.9307741,36.1010912 18.6534114,36.4112659 20.6631548,36.4112659 C21.8059949,36.4151129 22.9476864,36.3397317 24.0797186,36.1856843 C24.9906159,36.0672267 25.8922843,35.8882305 26.778517,35.649928 C27.4838674,35.4755475 28.1748699,35.2493283 28.8456817,34.9731832 C29.4486047,34.7194038 29.9941065,34.4656245 30.4534764,34.2682406 L32.8651685,41.1484798 C31.6306119,41.8816201 29.9079746,42.5301672 27.6685462,43.1223189 C25.1145691,43.7423834 22.4898005,44.0361855 19.8592574,43.9964477 Z" id="Shape"></path>
            </g>
            <g id="Bitcoin" fill="#4D4D4D">
                <path d="M13.1921231,41.8536585 C11.0227517,41.8536585 8.85338038,41.7962387 6.71332486,41.6526893 C4.45599981,41.5040271 2.21246907,41.1970006 0,40.7339727 L0,3.15272079 C1.98797825,2.7975735 3.99417893,2.54838771 6.00974496,2.40626353 C8.17911631,2.23400416 10.2019085,2.14787448 12.0781216,2.14787448 C14.4060093,2.12751067 16.7311298,2.31005995 19.0259731,2.69336247 C20.9394924,2.97160683 22.7864077,3.58424492 24.4787173,4.50208583 C25.9526098,5.30598227 27.1857252,6.47401576 28.0552484,7.88985337 C28.9054075,9.2966382 29.3451449,11.0192319 29.3451449,13.0576344 C29.3451449,16.158303 27.8207218,18.598644 24.7718756,20.3786575 C27.2930369,21.2973741 28.9933549,22.5893193 29.9021456,24.1683635 C30.8300296,25.8310396 31.3045799,27.6998946 31.2799896,29.5945336 C31.2799896,33.6713386 29.7555665,36.7145874 26.7360361,38.7529899 C23.6578741,40.8488122 19.1725522,41.8536585 13.1921231,41.8536585 Z M8.6774854,17.8234769 L13.0162281,17.8234769 C15.771916,17.8234769 17.7067608,17.4789581 18.9087097,16.7899207 C20.0813429,16.1008832 20.6676595,14.9811973 20.6676595,13.4595729 C20.6676595,11.8805287 20.0520271,10.7895527 18.8500781,10.157935 C17.6188133,9.52631736 15.8305477,9.21050852 13.4852814,9.21050852 C12.7230698,9.21050852 11.9022266,9.21050852 11.0227517,9.23921841 C10.1432769,9.26792831 9.3810653,9.2966382 8.6774854,9.38276789 L8.6774854,17.8234769 Z M8.6774854,24.4841724 L8.6774854,34.5039256 C9.32243364,34.5900552 10.0260135,34.647475 10.7882251,34.6761849 C11.5504367,34.7048948 12.4005957,34.7336047 13.3093864,34.7336047 C15.9771268,34.7336047 18.1171824,34.3603761 19.7588688,33.6139188 C21.4005552,32.8674616 22.2213984,31.4893866 22.2213984,29.479694 C22.2213984,27.6996806 21.5471344,26.4077353 20.1692904,25.6612781 C18.7914464,24.8861109 16.8272859,24.5128823 14.2768088,24.5128823 L8.6774854,24.4841724 Z" id="Shape"></path>
                <path d="M44.2247191,4.82237276 C44.2247191,6.30810943 43.7504843,7.48548566 42.7741186,8.35450145 C40.8277551,10.073753 37.9138179,10.073753 35.9674545,8.35450145 C35.0189849,7.48548566 34.5168539,6.3361422 34.5168539,4.82237276 C34.5168539,3.33663608 34.9910887,2.15925985 35.9674545,1.29024406 C36.9011432,0.447243639 38.1156649,-0.012933204 39.3707865,0.00073675951 C40.6273183,-0.0210301825 41.8446905,0.440226697 42.7741186,1.29024406 C43.7504843,2.15925985 44.2247191,3.33663608 44.2247191,4.82237276 Z M43.4436265,41.8536585 L35.3537389,41.8536585 L35.3537389,13.1200719 L43.4436265,13.1200719 L43.4436265,41.8536585 Z" id="Shape"></path>
                <path d="M49.6466184,4.5635004 L57.9146419,3.2195122 L57.9146419,11.8553513 L67.8647804,11.8553513 L67.8647804,18.7754608 L57.9146419,18.7754608 L57.9146419,29.0698385 C57.9146419,30.8141636 58.2282566,32.2153428 58.8269755,33.2447806 C59.4256944,34.2742184 60.6801532,34.8175327 62.5333308,34.8175327 C63.4515223,34.814431 64.3675649,34.7282958 65.2703317,34.5601733 C66.1523815,34.4028497 67.0200995,34.1733182 67.8647804,33.8738815 L69.0337079,40.336463 C67.9502393,40.7736925 66.8350982,41.1273962 65.6979881,41.3944963 C64.2186102,41.7179347 62.707334,41.8714319 61.1933408,41.8520242 C58.9410172,41.8520242 57.0593291,41.5374738 55.576787,40.9369684 C54.185151,40.405985 52.9564462,39.5186779 52.0129838,38.363374 C51.0937188,37.2021147 50.4589782,35.8406963 50.1598061,34.3886003 C49.7940182,32.687925 49.6123994,30.9526046 49.618108,29.212816 L49.6466184,4.5635004 Z" id="Shape"></path>
                <path d="M70.1127923,26.2653651 C70.0982972,24.2123386 70.4480877,22.173132 71.1457748,20.2432902 C72.4597421,16.5181479 75.2705255,13.5179155 78.8931438,11.9737424 C80.9055117,11.1135665 83.0765352,10.6912973 85.2632028,10.7347509 C86.709284,10.7212126 88.1525204,10.8661388 89.5672967,11.1669573 C90.864289,11.4522146 92.1322246,11.8573329 93.3548993,12.377135 L91.6332618,19.0619263 C90.7881962,18.7525303 89.9259205,18.4927676 89.0508054,18.2839549 C88.0259522,18.0425045 86.9757801,17.9264065 85.9231639,17.9381898 C83.4554833,17.9381898 81.61907,18.7161612 80.4139237,20.2432902 C79.2087774,21.7704193 78.6062042,23.7873821 78.6062042,26.2941789 C78.6062042,28.9450444 79.1800834,31.0196348 80.2991478,32.4603225 C81.4469062,33.9298241 83.4267894,34.650168 86.2387974,34.650168 C87.3258504,34.6480823 88.4106911,34.5516779 89.4812148,34.3620304 C90.5749656,34.1947662 91.6444603,33.8948315 92.6662443,33.468804 L93.8426966,40.3264778 C92.6656444,40.8007096 91.4450829,41.1577909 90.1985638,41.3925867 C88.6103394,41.7025073 86.9959093,41.8569044 85.3779786,41.8536068 C82.6807464,41.8536068 80.3852297,41.4502142 78.4340405,40.6434291 C76.6133304,39.9200271 74.9762711,38.797848 73.6421493,37.358661 C72.3787412,35.9521451 71.4470431,34.277935 70.9162231,32.4603225 C70.3808359,30.4392944 70.1107391,28.3566777 70.1127923,26.2653651 Z" id="Shape"></path>
                <path d="M122.965372,27.3086031 C122.986478,29.476747 122.644379,31.6331613 121.953219,33.6886957 C121.342681,35.523012 120.346892,37.2060675 119.032433,38.6253285 C117.743472,39.998331 116.175884,41.0809709 114.434365,41.8009402 C110.595228,43.3021256 106.330091,43.3021256 102.490955,41.8009402 C100.749436,41.0809709 99.1818476,39.998331 97.8928868,38.6253285 C96.5764273,37.1973443 95.5631999,35.5180677 94.914264,33.6886957 C94.1780195,31.6430555 93.8156083,29.4820861 93.8442733,27.3086031 C93.8196942,25.1423564 94.1921224,22.9898816 94.9431827,20.9573798 C95.6058834,19.138671 96.6398899,17.47726 97.9796428,16.0784854 C99.2859631,14.7197411 100.861862,13.6479963 102.60663,12.9317429 C104.458323,12.1686343 106.445029,11.7857185 108.448201,11.8058442 C110.470353,11.782988 112.476503,12.1658606 114.347609,12.9317429 C116.087579,13.6412575 117.655355,14.7141837 118.945677,16.0784854 C120.26129,17.4851064 121.274922,19.1454045 121.9243,20.9573798 C122.627858,23.000637 122.979855,25.1480493 122.965372,27.3086031 Z M114.405446,27.3086031 C114.405446,24.7103754 113.88491,22.6895316 112.843838,21.2172025 C111.802766,19.7448735 110.327914,18.9942743 108.419282,18.9942743 C106.51065,18.9942743 105.006879,19.7448735 103.965807,21.2172025 C102.924735,22.6895316 102.37528,24.7392446 102.37528,27.3086031 C102.37528,29.9068309 102.895816,31.9565439 103.965807,33.4577422 C105.006879,34.9878096 106.51065,35.7384087 108.419282,35.7384087 C110.327914,35.7384087 111.802766,34.9878096 112.843838,33.4577422 C113.88491,31.9276747 114.405446,29.8779617 114.405446,27.3086031 Z" id="Shape"></path>
                <path d="M135.910112,4.82237276 C135.910112,6.30810943 135.435878,7.48548566 134.459512,8.35450145 C132.513148,10.073753 129.599211,10.073753 127.652848,8.35450145 C126.704378,7.48548566 126.202247,6.3361422 126.202247,4.82237276 C126.202247,3.33663608 126.676482,2.15925985 127.652848,1.29024406 C128.586536,0.447243639 129.801058,-0.012933204 131.05618,0.00073675951 C132.312712,-0.0210301825 133.530084,0.440226697 134.459512,1.29024406 C135.435878,2.15925985 135.910112,3.33663608 135.910112,4.82237276 Z M135.156916,41.8536585 L127.067028,41.8536585 L127.067028,13.1200719 L135.156916,13.1200719 L135.156916,41.8536585 Z" id="Shape"></path>
                <path d="M140.224719,13.4965556 C142.06543,13.0025001 143.935429,12.619479 145.824155,12.3496556 C148.200664,11.9895513 150.601816,11.8074295 153.006677,11.804878 C155.557205,11.804878 157.667987,12.1202756 159.368339,12.7797431 C160.929453,13.3393667 162.313963,14.2882256 163.384688,15.5323031 C164.403173,16.7750807 165.12439,18.2250201 165.49547,19.7758332 C165.923788,21.5706819 166.130479,23.4092918 166.111115,25.2522808 L166.111115,41.8536585 L157.609354,41.8536585 L157.609354,26.2558183 C157.609354,23.5606032 157.257557,21.6682182 156.524647,20.5499907 C155.791736,19.4317632 154.443181,18.8869857 152.478981,18.8869857 C151.863337,18.8869857 151.218375,18.9156582 150.544098,18.9730032 C149.86982,19.0303482 149.254176,19.0876932 148.72648,19.1737107 L148.72648,41.8536585 L140.224719,41.8536585 L140.224719,13.4965556 Z" id="Shape"></path>
            </g>
        </g>
        <g id="Group" transform="translate(10.000000, 8.000000)" fill="#FFFFFF" fill-rule="nonzero">
            <path d="M50.6153846,43 C57.2617416,38.2536795 61.6049759,30.3962037 61.6049759,21.5036538 C61.6049759,12.6111039 57.2618837,4.74632054 50.6153846,0 L70,0 L70,43 L50.6153846,43 Z" id="Shape"></path>
            <path d="M8.40691582,21.5000362 C8.40691582,30.3936484 12.745282,38.2524465 19.3841894,43 L0,43 L0,0 L19.3846154,0 C12.745282,4.7471193 8.40691582,12.6059174 8.40691582,21.5000362 Z" id="Shape"></path>
            <path d="M34.5384615,43 C22.6430977,43 13,33.3741221 13,21.5 C13,9.62587788 22.6430977,0 34.5384615,0 C46.4338254,0 56.0769231,9.62587788 56.0769231,21.5 C56.0769231,33.3741221 46.4338254,43 34.5384615,43 Z M45.3606648,22.4706374 L45.3485881,22.4482358 L45.3465387,22.4445144 C45.3392194,22.4219668 45.33373,22.3983977 45.325386,22.3740259 L45.3243613,22.3721287 L45.3233366,22.3702315 L45.3223119,22.3683343 L45.3212872,22.3664371 L45.3202625,22.3645399 L45.3192378,22.3626427 L45.3171885,22.3589213 C45.0620889,21.5084871 44.5563641,20.7541831 43.8657067,20.1939917 L43.864682,20.1920945 C43.8442613,20.176552 43.8228158,20.1591853 43.8023219,20.1437158 L43.7740696,20.1227736 L43.7536489,20.1073041 L43.7448658,20.1000071 L43.7253965,20.0863618 L43.7166134,20.0790649 L43.6971442,20.0654196 L43.6883611,20.0581227 L43.6679404,20.0426532 L43.6572542,20.0363048 L43.6368335,20.0208353 L43.6261474,20.014487 L43.6041896,19.9998931 L43.5935035,19.9935448 L43.5805484,19.9739889 L43.5689108,19.9658164 L43.5469531,19.9512225 L43.5353154,19.9430499 L43.5133577,19.928456 L43.50172,19.9202835 L43.4797623,19.9056896 L43.4681247,19.897517 L43.4447762,19.8811719 L43.4331386,19.8729993 L43.4079604,19.8576027 L43.3963228,19.8494302 L43.3711445,19.8340336 L43.3595069,19.825861 L43.3343286,19.8104645 L43.322691,19.8022919 L43.2975128,19.7868954 L43.2839722,19.7795984 L43.2587939,19.7642019 L43.2452533,19.7569049 L43.218172,19.7423111 L43.2046314,19.7350141 L43.1765255,19.7188149 L43.1629849,19.711518 L43.1348789,19.6953188 L43.1213383,19.6880218 L43.0932323,19.6718226 L43.0785938,19.6627744 L43.0504879,19.6465752 L43.0358494,19.637527 L43.0059136,19.6222764 L42.9912751,19.6132282 L42.9613393,19.5979776 L42.941065,19.5871781 L42.9401135,19.5852809 C42.925475,19.5762327 42.9101777,19.5700303 42.8956124,19.5609821 C42.2742585,19.242628 41.6033874,19.0312978 40.9113619,18.9359261 C41.1054107,18.727961 41.2831336,18.5054295 41.4429596,18.2702991 L41.4684306,18.2325739 L41.4703336,18.2315523 L41.4821176,18.213164 L41.4975612,18.1880625 L41.5057588,18.1764604 L41.5212024,18.1513589 L41.5294,18.1397568 L41.5448436,18.1146553 L41.5530412,18.1030532 L41.5684848,18.0779517 L41.5766824,18.0663496 L41.592126,18.0412481 L41.6003236,18.0296459 L41.6138642,18.0054931 L41.6220618,17.9938909 L41.6356024,17.9697381 L41.6419701,17.9590845 L41.6555108,17.9349316 L41.6618785,17.9242781 L41.6754191,17.9001252 L41.6817137,17.8894717 L41.6933513,17.8663404 L41.6997191,17.8556869 L41.7113567,17.8325556 L41.7177244,17.821902 L41.7293621,17.7987707 L41.7357298,17.7881172 L41.7483189,17.7668831 L41.7546867,17.7562296 L41.767349,17.7349955 L41.7737168,17.7243419 L41.7845493,17.7041294 L41.790917,17.6934759 L41.8017495,17.6732633 L41.8062143,17.6636314 L41.8170468,17.6434188 L41.8215115,17.6337869 L41.832344,17.6135743 L41.8368087,17.6039424 L41.8476412,17.5837299 L41.852106,17.5740979 L41.8610355,17.554834 L41.8655002,17.545202 L41.8744297,17.5259381 L41.8788945,17.5163061 L41.887824,17.4970422 L41.8922887,17.4874102 L41.9020965,17.4655194 L41.9154908,17.4363316 C41.9252986,17.4144408 41.9332034,17.3931337 41.9430112,17.3706592 L41.9449142,17.3696376 C42.2426713,16.6379142 42.3124788,15.8337495 42.1452422,15.0619069 L42.1442175,15.0600097 L42.1421681,15.0562883 L42.1411434,15.0543911 L42.1401187,15.0524939 L42.139094,15.0505967 L42.1380693,15.0486994 L42.1370447,15.0468022 L42.13602,15.044905 C42.1315552,15.0230142 42.1270905,15.0015612 42.1207959,14.9808379 L42.1207959,14.9766786 L42.1197712,14.9747814 L42.1187465,14.9728842 L42.1177218,14.970987 L42.1187465,14.9728842 L42.1096706,14.9561013 C42.1030833,14.9259649 42.0964228,14.8958285 42.0869077,14.8648165 C42.0803204,14.8346802 42.0708054,14.8036682 42.062315,14.7744804 L42.051263,14.753976 L42.0492136,14.7502545 C42.0428458,14.7296042 42.0365513,14.7088809 42.0301835,14.6882305 L42.0291588,14.6863333 L42.0281341,14.6844361 L42.0271094,14.6825389 L42.0260847,14.6806417 L42.02506,14.6787445 L42.0240353,14.6768473 L42.0230838,14.6749501 C41.7965618,13.9180903 41.3466216,13.2468015 40.7318938,12.7485576 L40.7309423,12.7466604 C40.7133761,12.7320665 40.6939068,12.7183482 40.6763406,12.7037544 L40.6521139,12.685512 L40.6326447,12.6718667 L40.6238615,12.6645698 L40.60732,12.6518001 L40.5985369,12.6445032 L40.5819222,12.6317335 L40.5732123,12.6244366 L40.5546946,12.6126885 L40.5459115,12.6053916 L40.5265154,12.5917463 L40.5177323,12.5844494 L40.4982631,12.5708041 L40.48948,12.5635071 L40.4700108,12.5498619 L40.4593247,12.5435135 L40.4398554,12.5298682 L40.4291693,12.5235199 L40.4097001,12.5098746 L40.399014,12.5035263 L40.3777149,12.4909026 L40.3670288,12.4845542 L40.3457298,12.4719305 L40.3350437,12.4655822 L40.3137446,12.4529585 L40.3030585,12.4466101 L40.2817595,12.4339864 L40.2710734,12.4276381 L40.2487496,12.4130442 L40.2380635,12.4066959 L40.2157398,12.392102 L40.2050537,12.3857537 L40.1808269,12.3722543 L40.1701408,12.365906 L40.1459873,12.3524066 L40.1343497,12.3442341 L40.1101229,12.3307347 L40.0984853,12.3225621 L40.0743318,12.3090628 L40.0626941,12.3008902 L40.0375159,12.2854937 L40.0239753,12.2781967 L39.9981383,12.2622164 L39.9845977,12.2549195 L39.9575164,12.2403256 L39.9439758,12.2330287 L39.9168946,12.2184348 L39.8975717,12.2095325 L39.896547,12.2076353 L39.8559251,12.1857445 C38.6691809,11.5708312 37.1614872,11.3857078 35.6445713,11.7736862 L35.2499902,11.8746759 L34.2519363,8 L31.9390512,8.59105225 L32.9338114,12.4504046 L31.0832838,12.9262381 L30.0878649,9.07921763 L27.7749798,9.67026989 L28.7697399,13.5296222 L24,14.7532463 L24.6346527,17.2123155 L26.5565431,16.7202098 C27.1926212,16.5567351 27.8411925,16.9382817 28.0051704,17.5724196 L28.0057559,17.5747546 L30.6734054,27.923058 C30.7821607,28.3462558 30.5267589,28.7773523 30.1025034,28.8866921 L28.4184888,29.318598 L28.5174452,32.2432121 L33.2815493,31.0226528 L34.2891182,34.875 L36.6008322,34.2819776 L35.6054133,30.4207281 L37.4555749,29.9478133 L38.4513598,33.8089898 L40.7630738,33.2159674 L39.7639221,29.3396862 C40.1556487,29.237529 40.4926273,29.1508414 40.7257456,29.0907146 C42.4352312,28.6523873 43.8176192,27.6532171 44.654137,26.4072644 L44.6823893,26.3656718 L44.6842923,26.3646502 L44.6979793,26.3452404 L44.7161311,26.3160526 L44.725207,26.3014587 L44.7433587,26.2722709 L44.7524346,26.2576771 L44.7686834,26.2296568 L44.7777592,26.2150629 L44.794008,26.1870427 L44.8013272,26.1735433 L44.817576,26.1455231 L44.8248953,26.1320237 L44.841144,26.1040035 L44.8484633,26.0905041 L44.8631018,26.0635055 L44.870421,26.0500061 L44.8850595,26.0230074 L44.8923788,26.0095081 L44.9078224,25.9844066 L44.9151417,25.9709073 L44.9305853,25.9458058 L44.9379046,25.9323064 L44.9514452,25.9081536 L44.9587645,25.8946542 L44.9723051,25.8705743 L44.9796243,25.857075 L44.993165,25.8329951 L44.998508,25.8205173 L45.0120486,25.7964374 L45.0173917,25.7839596 L45.0290293,25.7608283 L45.0353971,25.7501748 L45.0470347,25.7270435 L45.0534024,25.7163899 L45.0650401,25.6932586 L45.0714078,25.6826051 L45.0830454,25.6594738 L45.0894132,25.6488203 L45.1010508,25.625689 L45.1074186,25.6150354 L45.1190562,25.5919041 L45.1254239,25.5812506 L45.1352317,25.5593598 L45.1415995,25.5487062 L45.1513341,25.5268154 L45.1557988,25.5171834 L45.166485,25.4922279 L45.1811235,25.4604862 C45.1918096,25.4355307 45.2030812,25.4123994 45.2122303,25.3883924 L45.2131086,25.3855466 C45.5477525,24.5624231 45.6264491,23.6580107 45.4389809,22.7897327 L45.4380294,22.7878355 L45.4370047,22.7859383 L45.43598,22.7840411 L45.4349553,22.7821439 L45.4339306,22.7802467 L45.4329059,22.7783495 L45.4318812,22.7764523 L45.4308565,22.7745551 C45.4253671,22.7509859 45.4199508,22.7274898 45.4144614,22.7039207 L45.4144614,22.6991777 L45.4134367,22.6972804 L45.412412,22.6953832 L45.4113873,22.693486 L45.4103626,22.6915888 L45.4093379,22.6896916 L45.4083132,22.6877944 L45.4072885,22.6858972 L45.4062638,22.684 L45.4052391,22.6821028 L45.4042144,22.6802056 L45.4031897,22.6783084 L45.402165,22.6764112 L45.4011403,22.674514 L45.3971147,22.667217 C45.388478,22.6333592 45.3817443,22.5984799 45.3712046,22.5655707 C45.3658803,22.5341522 45.3623613,22.5024562 45.3606648,22.4706374 Z M31.7716598,15.5479562 C32.166241,15.4469665 33.7977033,15.0384837 34.3356686,14.8990392 C35.1909238,14.6807877 36.0337362,14.7655052 36.6917373,15.0814627 L36.7136951,15.0912406 L36.7233565,15.0956918 L36.7368971,15.1029887 L36.7436309,15.1065642 L36.7571715,15.1138611 L36.7639052,15.1174366 L36.7774458,15.1247336 L36.7841795,15.1283091 L36.7977202,15.135606 L36.8044539,15.1391815 L36.8179945,15.1464785 L36.8247282,15.150054 L36.8382688,15.1573509 L36.8450026,15.1609264 L36.8585432,15.1682233 L36.8652769,15.1717988 L36.8788175,15.1790958 L36.8855512,15.1826713 L36.8990919,15.1899682 L36.9058256,15.1935437 L36.9174632,15.2017163 L36.9241969,15.2052918 L36.9358345,15.2134644 L36.9425682,15.2170399 L36.9542059,15.2252125 L36.9609396,15.228788 L36.9716257,15.2351363 L36.9783594,15.2387118 L36.9890455,15.2450601 L36.9957792,15.2486356 L37.0064654,15.254984 L37.0131991,15.2585595 L37.0238852,15.2649078 L37.0306189,15.2684833 L37.041305,15.2748317 L37.0462089,15.2794287 L37.056895,15.2857771 L37.0607742,15.2884769 L37.0714604,15.2948253 L37.0753396,15.2975251 L37.0860257,15.3038735 L37.0899049,15.3065734 L37.100591,15.3129217 L37.1044702,15.3156216 L37.1132533,15.3229185 L37.1171325,15.3256184 L37.1278186,15.3319667 L37.1424571,15.3410149 C37.1531433,15.3473633 37.1628779,15.3565574 37.173564,15.3629057 C37.510415,15.6163925 37.7579182,15.9698832 37.8804578,16.3725106 L37.8834587,16.3781292 C37.886606,16.3884909 37.8907779,16.4006767 37.8939252,16.4110384 L37.8949499,16.4129356 L37.9010249,16.4240999 C37.9053433,16.4410288 37.9105399,16.4551119 37.9148583,16.4720408 C37.9196089,16.4893187 37.922697,16.5070086 37.9240806,16.5248707 L37.9301555,16.536035 L37.9311802,16.5379322 C37.932803,16.5495002 37.9356994,16.5608546 37.939817,16.57179 L37.9428179,16.5774087 C38.0293302,16.9889097 37.9832201,17.4171408 37.8110712,17.8009598 L37.7959204,17.8355473 L37.7878692,17.8518925 L37.7815014,17.862546 L37.7797448,17.8683106 L37.7752801,17.8779425 L37.7735234,17.8837071 L37.7671557,17.8943607 L37.7653991,17.9001252 L37.7590313,17.9107788 L37.7572747,17.9165434 L37.7509069,17.9271969 L37.7491503,17.9329615 L37.7427826,17.943615 L37.7410259,17.9493796 L37.7346582,17.9600331 L37.7329016,17.9657977 L37.7265338,17.9764512 L37.7229474,17.9831644 L37.7165796,17.993818 L37.7129932,18.0005311 L37.7066986,18.0111847 L37.703039,18.0178979 L37.6967444,18.0285514 L37.693158,18.0352646 L37.6849604,18.0468667 L37.6813008,18.0535799 L37.6731032,18.0651821 L37.6695168,18.0718952 L37.6613192,18.0834974 L37.6577328,18.0902106 L37.6495352,18.1018127 L37.6459488,18.1085259 L37.6377512,18.120128 L37.6341648,18.1268412 L37.6259672,18.1384433 L37.6223808,18.1451565 L37.6141832,18.1567587 L37.6105968,18.1634719 L37.6023992,18.175074 L37.5988128,18.1817872 L37.5887122,18.1944109 L37.5851258,18.2011241 L37.5750252,18.2137478 L37.5714388,18.220461 L37.5613382,18.2330847 L37.5577518,18.2397979 L37.5476512,18.2524216 L37.5403319,18.2611779 L37.5266449,18.2805878 C37.1013229,18.8747047 36.4043101,19.3546975 35.549055,19.5729491 C35.0100649,19.7105694 33.382555,20.135981 32.9883399,20.2369707 L31.7716598,15.5479562 Z M40.8118201,23.4814098 L40.817895,23.4925741 L40.8189197,23.4944713 C40.8211887,23.5076788 40.8244092,23.5180404 40.8266781,23.530956 L40.8277028,23.5328532 L40.8287275,23.5347504 L40.8297522,23.5366476 L40.8307769,23.5385448 C40.921995,23.9923926 40.8564443,24.4636594 40.6447946,24.8756364 L40.6240811,24.9132156 L40.6141269,24.9305823 L40.6068077,24.9440817 L40.6032212,24.9507949 L40.5968535,24.9614484 L40.5932671,24.9681616 L40.5868993,24.9788151 L40.5833129,24.9855283 L40.5751153,24.9971304 L40.5715289,25.0038436 L40.5633313,25.0154458 L40.5597449,25.0221589 L40.5515473,25.0337611 L40.5479609,25.0404743 L40.5397633,25.0520764 L40.5361769,25.0587896 L40.5279793,25.0703917 L40.5243928,25.0771049 L40.5161953,25.088707 L40.5126088,25.0954202 L40.5044113,25.1070224 L40.5008248,25.1137356 L40.4926273,25.1253377 L40.4890408,25.1320509 L40.4808433,25.143653 L40.4772568,25.1503662 L40.4671563,25.1629899 L40.4635698,25.1697031 L40.4534693,25.1823268 L40.4498828,25.18904 L40.4408069,25.2036339 L40.4372205,25.2103471 L40.4281446,25.2249409 L40.4245582,25.2316541 L40.4154823,25.246248 L40.4099929,25.2539828 L40.400917,25.2685767 L40.3954275,25.2763114 L40.3844487,25.2917809 L40.3789592,25.2995157 L40.3679803,25.3149852 L40.3624909,25.32272 L40.351512,25.3381895 L40.3460226,25.3459242 L40.3349705,25.3613937 L40.329481,25.3691285 L40.3185022,25.384598 L40.3092799,25.3943759 L40.2918601,25.415756 C39.7753401,26.0733563 38.9421891,26.6142786 37.9303019,26.873247 C37.2921359,27.0375012 35.363951,27.5402604 34.8947866,27.6596384 L33.582078,22.5674679 C34.0505104,22.4461927 35.9838188,21.9622595 36.6219116,21.7980054 C37.633872,21.5390369 38.6273879,21.6125171 39.3952511,21.9394201 L39.420283,21.9500736 L39.4327989,21.9554004 L39.4510971,21.9626974 L39.4597338,21.9652513 L39.4761289,21.9732779 L39.4847656,21.9758319 L39.5011608,21.9838585 L39.5097975,21.9864124 L39.5261926,21.9944391 L39.5328532,21.9980146 L39.5492483,22.0060412 L39.555982,22.0096167 L39.5723771,22.0176433 L39.5791109,22.0212188 L39.595506,22.0292455 L39.6022397,22.032821 L39.6157803,22.0401179 L39.6225141,22.0436934 L39.6360547,22.0509903 L39.6427884,22.0545658 L39.656329,22.0618628 L39.6630627,22.0654383 L39.6766034,22.0727352 L39.6833371,22.0763107 L39.6968777,22.0836077 L39.7036114,22.0871832 L39.717152,22.0944801 L39.7238858,22.0980556 L39.7374264,22.1053526 L39.7441601,22.1089281 L39.7577007,22.116225 L39.7644344,22.1198005 L39.7779751,22.1270974 L39.7847088,22.1306729 L39.7963464,22.1388455 L39.8030801,22.142421 L39.8147177,22.1505936 L39.8214514,22.1541691 L39.8330891,22.1623417 L39.8398228,22.1659172 L39.8514604,22.1740897 L39.8581941,22.1776653 L39.8698317,22.1858378 L39.8765654,22.1894133 L39.8872516,22.1957617 L39.8939853,22.1993372 L39.9056229,22.2075097 L39.9211397,22.2184552 C39.9327773,22.2266277 39.946318,22.2338517 39.957736,22.2420243 C40.3418739,22.5017698 40.626883,22.8831172 40.7666602,23.3243796 L40.7706858,23.3316765 C40.7748578,23.3438624 40.7780051,23.3542241 40.7821771,23.36641 L40.7832018,23.3683072 L40.7892767,23.3794715 C40.7935951,23.3964004 40.7979135,23.4133293 40.8032565,23.4321554 C40.8126984,23.4363147 40.8142354,23.457111 40.8112345,23.4827962 L40.8118201,23.4814098 Z" id="Combined-Shape"></path>
        </g>
    </g>
</svg>