<?xml version="1.0" encoding="UTF-8"?>
<svg width="351px" height="40px" viewBox="0 0 351 40" version="1.1" xmlns="http://www.w3.org/2000/svg" xmlns:xlink="http://www.w3.org/1999/xlink">
    <!-- Generator: Sketch 51.3 (57544) - http://www.bohemiancoding.com/sketch -->
    <title>Slice</title>
    <desc>Created with Sketch.</desc>
    <defs></defs>
    <g id="Page-1" stroke="none" stroke-width="1" fill="none" fill-rule="evenodd">
        <g id="Group-2" fill-rule="nonzero">
            <path d="M47,40 C53.1716172,35.5848181 57.2046205,28.2755383 57.2046205,20.0033989 C57.2046205,11.7312595 53.1717492,4.4151819 47,0 L65,0 L65,40 L47,40 Z" id="Shape" fill="#FCC60A"></path>
            <path d="M7.80642184,20.0000337 C7.80642184,28.2731613 11.8349047,35.5836712 17.9996044,40 L0,40 L0,0 L18,0 C11.8349047,4.41592493 7.80642184,11.7264348 7.80642184,20.0000337 Z" id="Shape" fill="#FCC60A"></path>
            <circle id="Oval" fill="#FCC60A" cx="32" cy="20" r="20"></circle>
            <path d="M42.8349031,21.4610581 L42.8236889,21.4402194 L42.8217859,21.4367576 C42.8149895,21.4157831 42.8098921,21.3938584 42.8021442,21.3711869 L42.8011927,21.3694221 L42.8002412,21.3676572 L42.7992897,21.3658924 L42.7983381,21.3641276 L42.7973866,21.3623627 L42.7964351,21.3605979 L42.7945321,21.3571361 C42.557654,20.5660345 42.0880524,19.8643564 41.4467276,19.3432481 L41.4457761,19.3414833 C41.426814,19.3270252 41.4069004,19.3108701 41.3878703,19.2964798 L41.361636,19.2769987 L41.3426739,19.2626084 L41.3345182,19.2558206 L41.3164396,19.2431273 L41.3082839,19.2363394 L41.2902053,19.2236462 L41.2820496,19.2168583 L41.2630875,19.2024681 L41.2531647,19.1965626 L41.2342026,19.1821724 L41.2242797,19.176267 L41.2038904,19.1626912 L41.1939676,19.1567858 L41.1819378,19.1385944 L41.1711315,19.130992 L41.1507421,19.1174163 L41.1399358,19.1098139 L41.1195464,19.0962382 L41.10874,19.0886358 L41.0883507,19.0750601 L41.0775443,19.0674577 L41.0558636,19.0522529 L41.0450573,19.0446505 L41.0216775,19.0303281 L41.0108711,19.0227257 L40.9874913,19.0084034 L40.976685,19.000801 L40.9533052,18.9864786 L40.9424988,18.9788762 L40.919119,18.9645538 L40.9065456,18.957766 L40.8831658,18.9434436 L40.8705923,18.9366558 L40.8454455,18.9230801 L40.832872,18.9162922 L40.8067737,18.9012232 L40.7942002,18.8944353 L40.7681018,18.8793663 L40.7555284,18.8725784 L40.72943,18.8575094 L40.7158371,18.8490925 L40.6897387,18.8340234 L40.6761458,18.8256065 L40.6483483,18.8114199 L40.6347554,18.8030029 L40.606958,18.7888163 L40.5881318,18.7787703 L40.5872482,18.7770055 C40.5736553,18.7685885 40.5594507,18.7628189 40.5459258,18.7544019 C39.9689544,18.4582586 39.3460026,18.2616724 38.7034075,18.1729545 C38.8835956,17.9794986 39.0486241,17.7724926 39.1970339,17.5537666 L39.2206855,17.5186734 L39.2224526,17.5177231 L39.2333949,17.5006177 L39.2477354,17.4772675 L39.2553474,17.4664748 L39.2696879,17.4431246 L39.2773,17.4323319 L39.2916405,17.4089817 L39.2992525,17.398189 L39.313593,17.3748388 L39.3212051,17.3640461 L39.3355456,17.3406959 L39.3431576,17.3299032 L39.355731,17.3074354 L39.3633431,17.2966427 L39.3759165,17.2741749 L39.3818294,17.2642647 L39.3944029,17.2417969 L39.4003158,17.2318866 L39.4128892,17.2094188 L39.4187342,17.1995086 L39.4295405,17.1779911 L39.4354534,17.1680808 L39.4462598,17.1465633 L39.4521727,17.136653 L39.4629791,17.1151356 L39.468892,17.1052253 L39.4805819,17.0854726 L39.4864948,17.0755624 L39.4982526,17.0558097 L39.5041656,17.0458995 L39.5142243,17.0270971 L39.5201372,17.0171868 L39.530196,16.9983845 L39.5343418,16.9894245 L39.5444006,16.9706222 L39.5485464,16.9616622 L39.5586051,16.9428599 L39.562751,16.9338999 L39.5728097,16.9150975 L39.5769556,16.9061376 L39.5852472,16.8882176 L39.5893931,16.8792577 L39.5976847,16.8613377 L39.6018306,16.8523778 L39.6101223,16.8344579 L39.6142681,16.8254979 L39.6233753,16.8051343 L39.6358128,16.7779829 C39.6449201,16.7576194 39.6522603,16.7377988 39.6613675,16.7168922 L39.6631346,16.715942 C39.9396234,16.035269 40.0044446,15.2872088 39.8491535,14.5692157 L39.848202,14.5674509 L39.846299,14.5639891 L39.8453475,14.5622242 L39.844396,14.5604594 L39.8434445,14.5586946 L39.842493,14.5569297 L39.8415415,14.5551649 L39.84059,14.5534 C39.8364441,14.5330365 39.8322983,14.5130802 39.8264533,14.4938027 L39.8264533,14.4899336 L39.8255018,14.4881688 L39.8245503,14.4864039 L39.8235988,14.4846391 L39.8245503,14.4864039 L39.8161227,14.4707919 C39.8100059,14.442758 39.8038212,14.4147242 39.7949858,14.3858758 C39.788869,14.357842 39.7800336,14.3289936 39.7721497,14.3018422 L39.761887,14.2827684 L39.759984,14.2793066 C39.7540711,14.2600969 39.7482262,14.2408194 39.7423133,14.2216098 L39.7413618,14.219845 L39.7404103,14.2180801 L39.7394587,14.2163153 L39.7385072,14.2145504 L39.7375557,14.2127856 L39.7366042,14.2110208 L39.7357207,14.2092559 C39.5253788,13.5052003 39.1075772,12.8807455 38.5367585,12.4172629 L38.535875,12.415498 C38.5195635,12.4019223 38.5014849,12.3891612 38.4851734,12.3755855 L38.4626772,12.3586158 L38.4445986,12.3459225 L38.4364429,12.3391347 L38.4210829,12.3272559 L38.4129271,12.3204681 L38.3974992,12.3085893 L38.3894114,12.3018015 L38.3722164,12.2908731 L38.3640606,12.2840852 L38.34605,12.2713919 L38.3378943,12.2646041 L38.3198157,12.2519108 L38.31166,12.2451229 L38.2935814,12.2324296 L38.2836586,12.2265242 L38.26558,12.2138309 L38.2556572,12.2079255 L38.2375787,12.1952322 L38.2276558,12.1893268 L38.2078782,12.1775838 L38.1979553,12.1716784 L38.1781777,12.1599354 L38.1682548,12.1540299 L38.1484772,12.142287 L38.1385543,12.1363815 L38.1187767,12.1246385 L38.1088539,12.1187331 L38.0881247,12.1051574 L38.0782018,12.099252 L38.0574727,12.0856763 L38.0475498,12.0797708 L38.0250536,12.0672133 L38.0151308,12.0613079 L37.9927025,12.0487504 L37.9818961,12.041148 L37.9593999,12.0285904 L37.9485935,12.020988 L37.9261652,12.0084305 L37.9153588,12.0008281 L37.891979,11.9865057 L37.8794056,11.9797179 L37.8554141,11.9648525 L37.8428407,11.9580646 L37.8176938,11.9444889 L37.8051204,11.9377011 L37.7799735,11.9241254 L37.7620309,11.9158442 L37.7610794,11.9140794 L37.7233591,11.8937158 C36.6213822,11.3217035 35.221381,11.1494957 33.8128162,11.5104058 L33.4464194,11.6043497 L32.5196552,8 L30.3719762,8.54981605 L31.295682,12.1399112 L29.5773349,12.5825471 L28.6530174,9.00392338 L26.5053384,9.55373943 L27.4290442,13.1438346 L23,14.2820896 L23.5893204,16.5695959 L25.3739329,16.1118231 C25.9645768,15.9597536 26.5668216,16.3146806 26.7190868,16.9045764 L26.7196305,16.9067485 L29.1967336,26.5330772 C29.2977206,26.9267496 29.0605618,27.3277696 28.6666103,27.429481 L27.1028825,27.831254 L27.1947705,30.5518253 L31.6185815,29.4164212 L32.5541811,33 L34.7007727,32.4483512 L33.7764552,28.8564912 L35.4944624,28.4165705 L36.4191198,32.0083626 L38.5657114,31.4567139 L37.6379277,27.8508709 C38.0016738,27.7558409 38.3145825,27.6752013 38.5310495,27.6192694 C40.1184289,27.2115231 41.4020749,26.2820624 42.1788415,25.1230366 L42.2050758,25.0843459 L42.2068429,25.0833956 L42.2195522,25.0653399 L42.2364075,25.0381885 L42.2448351,25.0246128 L42.2616903,24.9974613 L42.2701179,24.9838856 L42.285206,24.9578203 L42.2936336,24.9442446 L42.3087217,24.9181792 L42.3155182,24.9056217 L42.3306063,24.8795563 L42.3374027,24.8669988 L42.3524909,24.8409335 L42.3592873,24.8283759 L42.3728802,24.8032609 L42.3796767,24.7907034 L42.3932696,24.7655883 L42.400066,24.7530308 L42.4144065,24.7296806 L42.421203,24.717123 L42.4355435,24.6937728 L42.44234,24.6812153 L42.4549134,24.6587475 L42.4617099,24.64619 L42.4742833,24.6237901 L42.4810797,24.6112325 L42.4936532,24.5888326 L42.4986146,24.5772254 L42.511188,24.5548255 L42.5161494,24.5432183 L42.5269558,24.5217008 L42.5328687,24.5117905 L42.5436751,24.490273 L42.549588,24.4803627 L42.5603943,24.4588453 L42.5663073,24.448935 L42.5771136,24.4274175 L42.5830265,24.4175072 L42.5938329,24.3959897 L42.5997458,24.3860795 L42.6105522,24.364562 L42.6164651,24.3546517 L42.6255723,24.3342882 L42.6314852,24.3243779 L42.6405245,24.3040143 L42.6446704,24.2950544 L42.6545932,24.2718399 L42.6681861,24.2423128 C42.6781089,24.2190983 42.6885754,24.1975808 42.697071,24.1752488 L42.6978866,24.1726015 C43.0086273,23.4069052 43.0817027,22.5655913 42.9076251,21.7578909 L42.9067416,21.756126 L42.9057901,21.7543612 L42.9048386,21.7525964 L42.9038871,21.7508315 L42.9029356,21.7490667 L42.901984,21.7473018 L42.9010325,21.745537 L42.900081,21.7437721 C42.8949837,21.7218474 42.8899543,21.6999905 42.884857,21.6780657 L42.884857,21.6736536 L42.8839055,21.6718888 L42.882954,21.6701239 L42.8820025,21.6683591 L42.881051,21.6665943 L42.8800995,21.6648294 L42.879148,21.6630646 L42.8781965,21.6612997 L42.877245,21.6595349 L42.8762935,21.6577701 L42.875342,21.6560052 L42.8743905,21.6542404 L42.8734389,21.6524755 L42.8724874,21.6507107 L42.8687494,21.6439228 C42.8607296,21.6124272 42.8544768,21.5799813 42.84469,21.5493681 C42.839746,21.5201416 42.8364784,21.4906569 42.8349031,21.4610581 Z M30.2165413,15.0213546 C30.582938,14.9274107 32.0978673,14.5474267 32.5974066,14.4177109 C33.3915721,14.2146862 34.1741836,14.2934932 34.7851847,14.5874072 L34.805574,14.5965029 L34.8145453,14.6006435 L34.8271188,14.6074313 L34.8333715,14.6107574 L34.8459449,14.6175452 L34.8521977,14.6208713 L34.8647711,14.6276591 L34.8710239,14.6309852 L34.8835973,14.637773 L34.88985,14.6410991 L34.9024235,14.6478869 L34.9086762,14.651213 L34.9212496,14.6580008 L34.9275024,14.6613269 L34.9400758,14.6681147 L34.9463285,14.6714408 L34.958902,14.6782286 L34.9651547,14.6815547 L34.9777282,14.6883425 L34.9839809,14.6916686 L34.9947873,14.699271 L35.00104,14.702597 L35.0118464,14.7101994 L35.0180991,14.7135255 L35.0289054,14.7211279 L35.0351582,14.7244539 L35.045081,14.7303593 L35.0513337,14.7336854 L35.0612566,14.7395908 L35.0675093,14.7429169 L35.0774321,14.7488223 L35.0836849,14.7521484 L35.0936077,14.7580538 L35.0998604,14.7613798 L35.1097832,14.7672853 L35.1143369,14.7715616 L35.1242597,14.777467 L35.1278618,14.7799786 L35.1377846,14.785884 L35.1413867,14.7883955 L35.1513096,14.7943009 L35.1549117,14.7968124 L35.1648345,14.8027179 L35.1684366,14.8052294 L35.1765924,14.8120172 L35.1801945,14.8145287 L35.1901173,14.8204342 L35.2037102,14.8288511 C35.213633,14.8347565 35.2226723,14.8433092 35.2325951,14.8492146 C35.5453854,15.0850162 35.7752098,15.4138448 35.8889965,15.7883819 L35.8917831,15.7936086 C35.8947055,15.8032473 35.8985795,15.814583 35.901502,15.8242218 L35.9024535,15.8259866 L35.9080945,15.836372 C35.9121045,15.8521198 35.9169299,15.8652204 35.9209398,15.8809682 C35.9253511,15.8970407 35.9282186,15.9134964 35.9295034,15.9301123 L35.9351444,15.9404977 L35.9360959,15.9422625 C35.9376028,15.9530234 35.9402923,15.9635857 35.9441157,15.9737582 L35.9469023,15.9789848 C36.0272352,16.3617764 35.9844187,16.7601309 35.8245661,17.1171719 L35.8104975,17.1493463 L35.8030214,17.1645511 L35.7971085,17.1744614 L35.7954773,17.1798238 L35.7913315,17.1887838 L35.7897003,17.1941462 L35.7837874,17.2040564 L35.7821563,17.2094188 L35.7762434,17.2193291 L35.7746122,17.2246915 L35.7686993,17.2346018 L35.7670682,17.2399642 L35.7611552,17.2498744 L35.7595241,17.2552368 L35.7536112,17.2651471 L35.75198,17.2705095 L35.7460671,17.2804198 L35.7427369,17.2866646 L35.7368239,17.2965748 L35.7334937,17.3028197 L35.7276487,17.3127299 L35.7242505,17.3189748 L35.7184056,17.328885 L35.7150753,17.3351299 L35.7074633,17.3459225 L35.704065,17.3521674 L35.696453,17.36296 L35.6931228,17.3692049 L35.6855107,17.3799976 L35.6821805,17.3862424 L35.6745684,17.3970351 L35.6712382,17.4032799 L35.6636262,17.4140726 L35.6602959,17.4203174 L35.6526839,17.4311101 L35.6493536,17.4373549 L35.6417416,17.4481476 L35.6384113,17.4543924 L35.6307993,17.4651851 L35.627469,17.4714299 L35.6180899,17.4831729 L35.6147597,17.4894177 L35.6053806,17.5011607 L35.6020503,17.5074055 L35.5926712,17.5191485 L35.5893409,17.5253934 L35.5799618,17.5371363 L35.5731654,17.5452818 L35.560456,17.5633375 C35.1655141,18.1160044 34.518288,18.5625093 33.7241225,18.765534 C33.2236317,18.8935529 31.7123725,19.2892847 31.3463156,19.3832286 L30.2165413,15.0213546 Z M38.6109758,22.4013114 L38.6166168,22.4116968 L38.6175683,22.4134617 C38.6196752,22.4257477 38.6226657,22.4353864 38.6247726,22.4474009 L38.6257241,22.4491658 L38.6266756,22.4509306 L38.6276271,22.4526955 L38.6285786,22.4544603 C38.713281,22.8766443 38.6524125,23.315032 38.4558807,23.6982664 L38.4366468,23.7332238 L38.4274036,23.7493789 L38.4206071,23.7619364 L38.4172769,23.7681813 L38.411364,23.7780915 L38.4080337,23.7843364 L38.4021208,23.7942466 L38.3987905,23.8004914 L38.3911785,23.8112841 L38.3878482,23.817529 L38.3802362,23.8283216 L38.3769059,23.8345665 L38.3692939,23.8453591 L38.3659637,23.851604 L38.3583516,23.8623967 L38.3550214,23.8686415 L38.3474093,23.8794342 L38.3440791,23.885679 L38.336467,23.8964717 L38.3331368,23.9027165 L38.3255248,23.9135092 L38.3221945,23.919754 L38.3145825,23.9305467 L38.3112522,23.9367915 L38.3036402,23.9475842 L38.3003099,23.953829 L38.2909308,23.965572 L38.2876006,23.9718168 L38.2782214,23.9835598 L38.2748912,23.9898046 L38.2664636,24.0033804 L38.2631333,24.0096252 L38.2547057,24.0232009 L38.2513755,24.0294457 L38.2429479,24.0430214 L38.2378505,24.0502165 L38.2294229,24.0637922 L38.2243256,24.0709874 L38.2141309,24.0853776 L38.2090336,24.0925727 L38.1988389,24.106963 L38.1937415,24.1141581 L38.1835469,24.1285483 L38.1784495,24.1357435 L38.1681869,24.1501337 L38.1630895,24.1573288 L38.1528949,24.1717191 L38.1443313,24.1808148 L38.1281558,24.2007032 C37.6485301,24.8124245 36.8748899,25.315608 35.9352804,25.5565089 C35.3426977,25.7093034 33.5522402,26.1769865 33.1165876,26.2880357 L31.8976438,21.5511329 C32.3326168,21.4383188 34.1278318,20.9881484 34.7203465,20.8353539 C35.660024,20.594453 36.5825745,20.6628066 37.2955903,20.9669024 L37.3188342,20.9768127 L37.3304561,20.9817678 L37.3474473,20.9885557 L37.3554671,20.9909314 L37.3706911,20.9983981 L37.378711,21.0007738 L37.393935,21.0082405 L37.4019548,21.0106162 L37.4171789,21.0180828 L37.4233636,21.0214089 L37.4385877,21.0288755 L37.4448404,21.0322016 L37.4600645,21.0396682 L37.4663172,21.0429943 L37.4815413,21.0504609 L37.487794,21.0537869 L37.5003675,21.0605748 L37.5066202,21.0639008 L37.5191936,21.0706887 L37.5254464,21.0740147 L37.5380198,21.0808026 L37.5442725,21.0841286 L37.556846,21.0909165 L37.5630987,21.0942425 L37.5756721,21.1010304 L37.5819249,21.1043564 L37.5944983,21.1111443 L37.6007511,21.1144703 L37.6133245,21.1212582 L37.6195772,21.1245842 L37.6321507,21.1313721 L37.6384034,21.1346981 L37.6509768,21.141486 L37.6572296,21.144812 L37.6680359,21.1524144 L37.6742887,21.1557405 L37.685095,21.1633429 L37.6913478,21.1666689 L37.7021541,21.1742713 L37.7084069,21.1775974 L37.7192132,21.1851998 L37.725466,21.1885258 L37.7362723,21.1961282 L37.7425251,21.1994543 L37.7524479,21.2053597 L37.7587006,21.2086857 L37.769507,21.2162881 L37.7839155,21.2264699 C37.7947218,21.2340723 37.8072953,21.2407923 37.8178977,21.2483947 C38.1745971,21.4900184 38.4392485,21.8447602 38.5690417,22.2552368 L38.5727797,22.2620247 C38.5766537,22.2733604 38.5795762,22.2829991 38.5834501,22.2943349 L38.5844016,22.2960997 L38.5900427,22.3064851 C38.5940526,22.3222329 38.5980625,22.3379807 38.6030239,22.3554934 C38.6117913,22.3593625 38.6132186,22.3787079 38.610432,22.4026011 L38.6109758,22.4013114 Z" id="Shape" fill="#FFFFFF"></path>
        </g>
        <path d="M96.2301974,39 C94.2190094,39 92.2078214,38.9464952 90.2238116,38.8127332 C88.1310832,38.6742071 86.0511432,38.3881142 84,37.9566563 L84,2.93776255 C85.8430215,2.60682985 87.7029367,2.374634 89.5715344,2.24220011 C91.5827224,2.0816857 93.4580194,2.00142849 95.1974252,2.00142849 C97.3555711,1.98245313 99.5111515,2.15255587 101.638663,2.50972412 C103.412654,2.76899727 105.124899,3.33986458 106.693811,4.19512543 C108.060232,4.94421075 109.203433,6.0326056 110.009553,7.35190883 C110.797721,8.66277651 111.205395,10.2679206 111.205395,12.1673411 C111.205395,15.0566005 109.792127,17.3305546 106.965593,18.9892036 C109.30292,19.8452804 110.879256,21.0491385 111.721781,22.5205206 C112.582007,24.0698323 113.021954,25.8112654 112.999157,27.5767245 C112.999157,31.3755655 111.58589,34.2113201 108.786533,36.1107406 C105.932821,38.0636659 101.774554,39 96.2301974,39 Z M92.0447521,16.6082398 L96.0671281,16.6082398 C98.6218805,16.6082398 100.415643,16.287211 101.52995,15.6451533 C102.617078,15.0030957 103.160643,13.959752 103.160643,12.5418747 C103.160643,11.0704927 102.5899,10.0539014 101.475593,9.46534856 C100.334108,8.87679572 98.6762369,8.5825193 96.5019796,8.5825193 C95.795346,8.5825193 95.0343559,8.5825193 94.2190094,8.6092717 C93.4036629,8.63602411 92.6970293,8.66277651 92.0447521,8.74303371 L92.0447521,16.6082398 Z M92.0447521,22.814797 L92.0447521,32.1513852 C92.6426729,32.2316424 93.2949501,32.2851472 94.0015837,32.3118996 C94.7082173,32.338652 95.4963856,32.3654044 96.3389103,32.3654044 C98.812128,32.3654044 100.796138,32.0176232 102.318118,31.3220607 C103.840098,30.6264983 104.601088,29.342383 104.601088,27.4697149 C104.601088,25.811066 103.975989,24.6072079 102.698613,23.9116455 C101.421237,23.1893306 99.6002963,22.8415494 97.2357914,22.8415494 L92.0447521,22.814797 Z" id="Shape" fill="#4D4D4D" fill-rule="nonzero"></path>
        <path d="M125,4.49357462 C125,5.87801106 124.560345,6.97511164 123.655172,7.78487636 C121.850731,9.38690617 119.149269,9.38690617 117.344828,7.78487636 C116.465517,6.97511164 116,5.9041325 116,4.49357462 C116,3.10913817 116.439655,2.01203759 117.344828,1.20227288 C118.210435,0.416749754 119.336398,-0.0120513946 120.5,0.000686525907 C121.66491,-0.0195963065 122.793515,0.410211241 123.655172,1.20227288 C124.560345,2.01203759 125,3.10913817 125,4.49357462 Z M124.275862,39 L116.775862,39 L116.775862,12.2255216 L124.275862,12.2255216 L124.275862,39 Z" id="Shape" fill="#4D4D4D" fill-rule="nonzero"></path>
        <path d="M130.026553,4.25235264 L137.691699,3 L137.691699,11.0470319 L146.916307,11.0470319 L146.916307,17.4953157 L137.691699,17.4953157 L137.691699,27.0878041 C137.691699,28.7131979 137.982446,30.0188422 138.537509,30.978091 C139.092571,31.9373398 140.255559,32.4436101 141.973609,32.4436101 C142.824849,32.4407198 143.674097,32.3604575 144.511037,32.2037978 C145.32877,32.0572009 146.133217,31.8433192 146.916307,31.5642986 L148,37.5862496 C146.995534,37.993668 145.961706,38.3232555 144.90751,38.5721443 C143.536003,38.87353 142.134924,39.0165616 140.731326,38.9984771 C138.643235,38.9984771 136.898753,38.7053733 135.524313,38.1458115 C134.23415,37.6510315 133.095039,36.8242226 132.22037,35.7476894 C131.368135,34.6656069 130.779678,33.3970124 130.50232,32.043923 C130.163204,30.4592028 129.994829,28.8421997 130.000121,27.2210331 L130.026553,4.25235264 Z" id="Shape" fill="#4D4D4D" fill-rule="nonzero"></path>
        <path d="M149.000401,24.4745448 C148.986963,22.5614974 149.311248,20.6613276 149.958062,18.8630659 C151.176219,15.3919105 153.78205,12.5962395 157.140519,11.1573509 C159.006151,10.3558233 161.018871,9.96234524 163.046094,10.0028361 C164.386732,9.99022084 165.724732,10.1252657 167.036348,10.4055738 C168.238768,10.6713818 169.41425,11.0488784 170.547771,11.5332394 L168.95167,17.7622495 C168.168224,17.4739487 167.368822,17.2318971 166.557518,17.0373216 C165.607393,16.8123337 164.633796,16.7041515 163.657933,16.7151314 C161.370188,16.7151314 159.667679,17.4400593 158.550408,18.8630659 C157.433137,20.2860725 156.874502,22.1655152 156.874502,24.5013939 C156.874502,26.9715186 157.406536,28.9046597 158.444002,30.2471187 C159.508069,31.616427 161.343586,32.2876565 163.950552,32.2876565 C164.958341,32.2857131 165.964078,32.1958817 166.956543,32.0191647 C167.970541,31.8633049 168.962052,31.5838203 169.909331,31.1868401 L171,37.5769452 C169.908775,38.018843 168.777212,38.3515778 167.621585,38.5703649 C166.149169,38.8591545 164.652458,39.0030246 163.152501,38.9999518 C160.651942,38.9999518 158.523807,38.6240633 156.714892,37.8722862 C155.026942,37.1982071 153.509251,36.1525402 152.272409,34.8114795 C151.101125,33.5008625 150.237363,31.9408031 149.745249,30.2471187 C149.2489,28.3638879 148.998498,26.4232679 149.000401,24.4745448 Z" id="Shape" fill="#4D4D4D" fill-rule="nonzero"></path>
        <path d="M197.999147,25.4466529 C198.018714,27.4669688 197.70156,29.4763549 197.060796,31.3917392 C196.494777,33.1009884 195.571598,34.6692902 194.352985,35.9917833 C193.158011,37.2711721 191.704726,38.2799956 190.090192,38.9508761 C186.530993,40.349708 182.576856,40.349708 179.017656,38.9508761 C177.403123,38.2799956 175.949838,37.2711721 174.754864,35.9917833 C173.534396,34.6611617 172.59505,33.0963813 171.993432,31.3917392 C171.310872,29.4855744 170.974887,27.4719439 171.001462,25.4466529 C170.978675,23.4281048 171.323947,21.4223897 172.020242,19.5284675 C172.634621,17.8337617 173.593231,16.2856286 174.835294,14.9822251 C176.046362,13.7161223 177.507352,12.7174511 179.124896,12.0500332 C180.84157,11.3389547 182.683413,10.9821467 184.540519,11.0009003 C186.415223,10.9796025 188.275091,11.3363701 190.009762,12.0500332 C191.62286,12.7111718 193.076319,13.7109439 194.272555,14.9822251 C195.492238,16.2929401 196.431959,17.840036 197.033986,19.5284675 C197.686243,21.4324118 198.012574,23.4334096 197.999147,25.4466529 Z M190.063382,25.4466529 C190.063382,23.0255771 189.580802,21.1425181 188.615642,19.7705751 C187.650481,18.3986321 186.28317,17.6992102 184.513709,17.6992102 C182.744248,17.6992102 181.350128,18.3986321 180.384967,19.7705751 C179.419806,21.1425181 178.910416,23.0524779 178.910416,25.4466529 C178.910416,27.8677288 179.392996,29.7776886 180.384967,31.1765325 C181.350128,32.6022771 182.744248,33.3016991 184.513709,33.3016991 C186.28317,33.3016991 187.650481,32.6022771 188.615642,31.1765325 C189.580802,29.7507878 190.063382,27.840828 190.063382,25.4466529 Z" id="Shape" fill="#4D4D4D" fill-rule="nonzero"></path>
        <path d="M210,4.49357462 C210,5.87801106 209.560345,6.97511164 208.655172,7.78487636 C206.850731,9.38690617 204.149269,9.38690617 202.344828,7.78487636 C201.465517,6.97511164 201,5.9041325 201,4.49357462 C201,3.10913817 201.439655,2.01203759 202.344828,1.20227288 C203.210435,0.416749754 204.336398,-0.0120513946 205.5,0.000686525907 C206.66491,-0.0195963065 207.793515,0.410211241 208.655172,1.20227288 C209.560345,2.01203759 210,3.10913817 210,4.49357462 Z M209.301724,39 L201.801724,39 L201.801724,12.2255216 L209.301724,12.2255216 L209.301724,39 Z" id="Shape" fill="#4D4D4D" fill-rule="nonzero"></path>
        <path d="M214,12.5763359 C215.706493,12.115966 217.440138,11.75906 219.191143,11.5076336 C221.394366,11.1720819 223.620434,11.0023775 225.84994,11 C228.214492,11 230.171363,11.2938931 231.747731,11.9083969 C233.195013,12.4298644 234.47857,13.3140284 235.471222,14.4732824 C236.415442,15.6313252 237.08407,16.9824051 237.428092,18.4274809 C237.825178,20.0999535 238.016798,21.8132037 237.998846,23.5305344 L237.998846,39 L230.117006,39 L230.117006,24.4656489 C230.117006,21.9541985 229.79086,20.1908397 229.111391,19.148855 C228.431922,18.1068702 227.181699,17.5992366 225.360722,17.5992366 C224.789968,17.5992366 224.192036,17.6259542 223.566924,17.6793893 C222.941813,17.7328244 222.371059,17.7862595 221.881841,17.8664122 L221.881841,39 L214,39 L214,12.5763359 Z" id="Shape" fill="#4D4D4D" fill-rule="nonzero"></path>
        <path d="M260.942437,40.9966899 C255.086666,40.9966899 250.632732,39.3939069 247.580633,36.1883409 C244.519663,32.9827749 242.993613,28.4284188 243.002486,22.5252727 C242.960971,19.8416796 243.43981,17.1750148 244.413194,14.6690085 C245.262769,12.4810656 246.568606,10.4937684 248.246062,8.83592939 C249.89741,7.2404655 251.876042,6.01299039 254.048598,5.23623642 C256.394967,4.39919588 258.873512,3.98103291 261.368311,4.00130526 C262.760193,3.98630221 264.150416,4.10066553 265.520584,4.34288197 C266.628053,4.52366647 267.721855,4.77824123 268.794492,5.10486077 C269.597679,5.3418589 270.38084,5.64055602 271.1368,5.99821523 C271.748995,6.3135168 272.201486,6.54999298 272.494274,6.70764377 L270.151966,13.1450509 C268.923103,12.5183732 267.629051,12.0250231 266.292481,11.6736436 C264.661401,11.2417302 262.976912,11.0382972 261.288459,11.0693155 C260.047546,11.0714057 258.815484,11.2755905 257.641911,11.6736436 C256.45287,12.0940714 255.371671,12.7667436 254.474472,13.6442784 C253.501366,14.6459394 252.749137,15.8358305 252.26525,17.1388708 C251.70629,18.584003 251.440118,20.3181617 251.440118,22.3676219 C251.43395,23.9069899 251.612644,25.4416536 251.972461,26.9394947 C252.300555,28.2620976 252.898299,29.5048066 253.729192,30.591738 C254.58038,31.6469143 255.675764,32.4849295 256.923249,33.0353252 C258.227489,33.6396532 259.824517,33.9286796 261.687716,33.9286796 C262.747224,33.9322643 263.805668,33.8620227 264.855156,33.7184786 C265.699633,33.6080976 266.535555,33.4413057 267.357167,33.2192511 C268.011085,33.0567602 268.651702,32.845965 269.273601,32.5886479 C269.832561,32.3521718 270.338286,32.1156956 270.76416,31.9317697 L273,38.3429017 C271.855463,39.0260551 270.258435,39.6303831 268.182298,40.1821608 C265.814548,40.7599482 263.381169,41.0337183 260.942437,40.9966899 Z" id="Shape" fill="#FCC60A" fill-rule="nonzero"></path>
        <path d="M286.892644,12 C289.232307,12 291.163889,12.2609348 292.714596,12.7567109 C294.131635,13.1702941 295.414728,13.9248544 296.441734,14.9485631 C297.388502,15.9228919 298.070576,17.1058243 298.427727,18.3929023 C298.823293,19.8671657 299.015372,21.3848551 298.99904,22.9070742 L298.99904,38.6675355 C297.856414,38.9023768 296.305707,39.1894051 294.292508,39.5025268 C291.87059,39.8530553 289.423504,40.0188335 286.97426,39.9983029 C285.328981,40.0131224 283.686931,39.8556286 282.077291,39.5286203 C280.731317,39.2626874 279.448868,38.7582852 278.295743,38.041292 C277.24594,37.3579296 276.401625,36.4221527 275.847258,35.3275702 C275.275945,34.2055506 275.003891,32.8486897 275.003891,31.2048005 C274.959385,29.8229679 275.29731,28.4544866 275.983285,27.2385917 C276.604397,26.1740137 277.504692,25.2835299 278.595002,24.6553373 C279.750381,23.9776713 281.021282,23.500688 282.349345,23.2462894 C283.798284,22.9513971 285.275417,22.8027247 286.756617,22.8027003 C287.665203,22.8011505 288.573263,22.8446979 289.477156,22.9331677 C290.131514,22.9818735 290.778839,23.0955537 291.408738,23.2723829 L291.408738,22.567859 C291.408738,21.2892785 291.000657,20.2455394 290.184495,19.462735 C289.368334,18.6799306 287.953654,18.2885284 285.940456,18.2885284 C284.610977,18.2922308 283.283518,18.3881572 281.96847,18.5755567 C280.8097,18.7227981 279.670021,18.9851419 278.567797,19.3583611 L277.561198,13.252487 C278.023689,13.1220196 278.595002,12.9654587 279.275137,12.8088978 C279.955271,12.652337 280.717022,12.5218696 281.533184,12.3914022 C282.349345,12.2609348 283.192712,12.1826544 284.09049,12.0782804 C285.042678,12.052187 285.967661,12 286.892644,12 Z M287.518368,34.1533636 C288.307324,34.1533636 289.041869,34.1272702 289.749209,34.1011767 C290.314736,34.0893781 290.878552,34.0370453 291.435943,33.9446158 L291.435943,28.2040504 C290.959392,28.1106509 290.47812,28.040975 289.994058,27.9953026 C289.416604,27.9248003 288.835026,27.8899372 288.252913,27.8909287 C287.552498,27.8927544 286.852878,27.9363275 286.158099,28.0213961 C285.558896,28.0795706 284.976984,28.2478952 284.44416,28.5171722 C283.973287,28.7359015 283.570063,29.0686812 283.274328,29.4826309 C282.981086,29.9367003 282.83,30.4620027 282.839042,30.9960527 C282.839042,32.1702592 283.247123,33.0052506 284.09049,33.4488397 C284.933856,33.9446158 286.076483,34.1533636 287.518368,34.1533636 Z" id="Shape" fill="#FCC60A" fill-rule="nonzero"></path>
        <path d="M312.421324,33.7015223 C313.831861,33.7015223 314.843189,33.5670346 315.428695,33.2711617 C316.014201,33.0021864 316.306954,32.4373382 316.306954,31.6573097 C316.306954,31.0386664 315.934359,30.4738182 315.162556,30.0165601 C314.051409,29.3798784 312.884279,28.8486227 311.676134,28.4296056 C310.550838,28.016503 309.449101,27.5405809 308.376009,27.0040363 C307.452491,26.564542 306.607197,25.973801 305.874302,25.2556965 C305.17562,24.564049 304.631194,23.7295358 304.277468,22.8080209 C303.878236,21.7155562 303.688558,20.5562334 303.718576,19.3920341 C303.718576,16.8098708 304.676676,14.7656582 306.566264,13.2593963 C308.455851,11.7531344 311.064014,11.0000034 314.390753,11.0000034 C315.989481,10.9991641 317.584652,11.1522753 319.154642,11.4572615 C320.386738,11.6728901 321.597839,11.9968923 322.774134,12.4255727 L321.416825,18.5044155 C320.458157,18.1682023 319.480596,17.8897719 318.489295,17.6705919 C317.326871,17.4128493 316.139692,17.2865513 314.949645,17.2940264 C312.527779,17.2940264 311.330153,17.9664648 311.330153,19.338239 C311.323838,19.6245172 311.378288,19.9088399 311.489837,20.1720626 C311.631189,20.45435 311.841976,20.6951698 312.101957,20.8713985 C312.506902,21.1492084 312.934228,21.3921407 313.379424,21.5976319 C314.044938,21.9255425 314.729249,22.212962 315.428695,22.458353 C316.872105,22.986052 318.277203,23.6151981 319.633693,24.3411804 C320.604105,24.8573534 321.484993,25.5296019 322.241856,26.3315979 C322.85736,27.0128293 323.320314,27.8201641 323.599165,28.6985809 C323.882,29.6858185 324.016569,30.710379 323.998374,31.7380023 C323.998374,34.4546532 322.987045,36.5257633 320.964388,37.8975376 C318.941731,39.2962094 316.094043,39.9955453 312.39471,39.9955453 C310.363711,40.0337537 308.335491,39.8260612 306.353352,39.376902 C305.216345,39.0934018 304.096661,38.7431395 303,38.3278981 L304.304082,31.9800801 C305.617472,32.5015847 306.970282,32.9153508 308.349396,33.2173666 C309.683598,33.5374363 311.050051,33.6999087 312.421324,33.7015223 Z" id="Shape" fill="#FCC60A" fill-rule="nonzero"></path>
        <path d="M327,40 L327,1.24338624 L334.881396,0 L334.881396,12.989418 C335.550303,12.7837573 336.23087,12.6159286 336.919688,12.4867725 C337.716172,12.3316678 338.526202,12.2519314 339.338461,12.2486772 C341.594171,12.2486772 343.469399,12.5396825 344.964147,13.1481481 C346.360805,13.6867192 347.594861,14.5603646 348.551541,15.6878307 C349.468226,16.8441832 350.117191,18.1798202 350.453947,19.6031746 C350.841443,21.260358 351.023921,22.95671 350.997491,24.6560847 L350.997491,39.973545 L343.116095,39.973545 L343.116095,25.5820106 C343.116095,23.0952381 342.789969,21.3492063 342.137715,20.3174603 C341.485462,19.2857143 340.262487,18.7830688 338.523144,18.7830688 C337.856915,18.7751772 337.191755,18.8372648 336.539207,18.968254 C335.979924,19.0725266 335.426576,19.2049798 334.881396,19.3650794 L334.881396,39.973545 L327,39.973545 L327,40 Z" id="Shape" fill="#FCC60A" fill-rule="nonzero"></path>
    </g>
</svg>